%TF.GenerationSoftware,KiCad,Pcbnew,9.0.0-rc3*%
%TF.CreationDate,2025-02-21T14:46:23+07:00*%
%TF.ProjectId,led_torch,6c65645f-746f-4726-9368-2e6b69636164,0*%
%TF.SameCoordinates,Original*%
%TF.FileFunction,Legend,Bot*%
%TF.FilePolarity,Positive*%
%FSLAX46Y46*%
G04 Gerber Fmt 4.6, Leading zero omitted, Abs format (unit mm)*
G04 Created by KiCad (PCBNEW 9.0.0-rc3) date 2025-02-21 14:46:23*
%MOMM*%
%LPD*%
G01*
G04 APERTURE LIST*
%ADD10C,0.100000*%
%ADD11C,0.010000*%
G04 APERTURE END LIST*
D10*
X151338972Y-50122419D02*
X151005639Y-51122419D01*
X151005639Y-51122419D02*
X150672306Y-50122419D01*
X149815163Y-51122419D02*
X150386591Y-51122419D01*
X150100877Y-51122419D02*
X150100877Y-50122419D01*
X150100877Y-50122419D02*
X150196115Y-50265276D01*
X150196115Y-50265276D02*
X150291353Y-50360514D01*
X150291353Y-50360514D02*
X150386591Y-50408133D01*
X149386591Y-51027180D02*
X149338972Y-51074800D01*
X149338972Y-51074800D02*
X149386591Y-51122419D01*
X149386591Y-51122419D02*
X149434210Y-51074800D01*
X149434210Y-51074800D02*
X149386591Y-51027180D01*
X149386591Y-51027180D02*
X149386591Y-51122419D01*
X148719925Y-50122419D02*
X148624687Y-50122419D01*
X148624687Y-50122419D02*
X148529449Y-50170038D01*
X148529449Y-50170038D02*
X148481830Y-50217657D01*
X148481830Y-50217657D02*
X148434211Y-50312895D01*
X148434211Y-50312895D02*
X148386592Y-50503371D01*
X148386592Y-50503371D02*
X148386592Y-50741466D01*
X148386592Y-50741466D02*
X148434211Y-50931942D01*
X148434211Y-50931942D02*
X148481830Y-51027180D01*
X148481830Y-51027180D02*
X148529449Y-51074800D01*
X148529449Y-51074800D02*
X148624687Y-51122419D01*
X148624687Y-51122419D02*
X148719925Y-51122419D01*
X148719925Y-51122419D02*
X148815163Y-51074800D01*
X148815163Y-51074800D02*
X148862782Y-51027180D01*
X148862782Y-51027180D02*
X148910401Y-50931942D01*
X148910401Y-50931942D02*
X148958020Y-50741466D01*
X148958020Y-50741466D02*
X148958020Y-50503371D01*
X148958020Y-50503371D02*
X148910401Y-50312895D01*
X148910401Y-50312895D02*
X148862782Y-50217657D01*
X148862782Y-50217657D02*
X148815163Y-50170038D01*
X148815163Y-50170038D02*
X148719925Y-50122419D01*
D11*
%TO.C,REF1*%
X144307002Y-60864242D02*
X144341247Y-60885142D01*
X144376729Y-60913873D01*
X144376729Y-61775871D01*
X144341247Y-61804602D01*
X144299495Y-61827867D01*
X144251832Y-61828980D01*
X144209976Y-61801696D01*
X144204815Y-61795486D01*
X144197538Y-61782881D01*
X144191937Y-61764666D01*
X144187794Y-61737347D01*
X144184892Y-61697433D01*
X144183014Y-61641430D01*
X144181941Y-61565847D01*
X144181457Y-61467190D01*
X144181344Y-61341966D01*
X144181344Y-60913873D01*
X144216826Y-60885142D01*
X144248396Y-60865477D01*
X144279037Y-60856410D01*
X144307002Y-60864242D01*
G36*
X144307002Y-60864242D02*
G01*
X144341247Y-60885142D01*
X144376729Y-60913873D01*
X144376729Y-61775871D01*
X144341247Y-61804602D01*
X144299495Y-61827867D01*
X144251832Y-61828980D01*
X144209976Y-61801696D01*
X144204815Y-61795486D01*
X144197538Y-61782881D01*
X144191937Y-61764666D01*
X144187794Y-61737347D01*
X144184892Y-61697433D01*
X144183014Y-61641430D01*
X144181941Y-61565847D01*
X144181457Y-61467190D01*
X144181344Y-61341966D01*
X144181344Y-60913873D01*
X144216826Y-60885142D01*
X144248396Y-60865477D01*
X144279037Y-60856410D01*
X144307002Y-60864242D01*
G37*
X153800579Y-60862264D02*
X153846051Y-60893301D01*
X153882942Y-60930192D01*
X153882942Y-61346978D01*
X153882887Y-61458852D01*
X153882543Y-61557668D01*
X153881650Y-61633226D01*
X153879949Y-61689104D01*
X153877181Y-61728882D01*
X153873088Y-61756136D01*
X153867409Y-61774447D01*
X153859888Y-61787391D01*
X153850263Y-61798548D01*
X153808374Y-61827125D01*
X153761556Y-61829476D01*
X153717617Y-61803274D01*
X153710551Y-61795461D01*
X153703296Y-61783367D01*
X153697750Y-61765605D01*
X153693683Y-61738690D01*
X153690869Y-61699138D01*
X153689077Y-61643465D01*
X153688081Y-61568185D01*
X153687650Y-61469816D01*
X153687557Y-61344872D01*
X153687610Y-61244140D01*
X153687949Y-61140414D01*
X153688807Y-61060519D01*
X153690410Y-61000971D01*
X153692988Y-60958284D01*
X153696769Y-60928975D01*
X153701982Y-60909559D01*
X153708855Y-60896552D01*
X153717617Y-60886470D01*
X153756470Y-60861145D01*
X153800579Y-60862264D01*
G36*
X153800579Y-60862264D02*
G01*
X153846051Y-60893301D01*
X153882942Y-60930192D01*
X153882942Y-61346978D01*
X153882887Y-61458852D01*
X153882543Y-61557668D01*
X153881650Y-61633226D01*
X153879949Y-61689104D01*
X153877181Y-61728882D01*
X153873088Y-61756136D01*
X153867409Y-61774447D01*
X153859888Y-61787391D01*
X153850263Y-61798548D01*
X153808374Y-61827125D01*
X153761556Y-61829476D01*
X153717617Y-61803274D01*
X153710551Y-61795461D01*
X153703296Y-61783367D01*
X153697750Y-61765605D01*
X153693683Y-61738690D01*
X153690869Y-61699138D01*
X153689077Y-61643465D01*
X153688081Y-61568185D01*
X153687650Y-61469816D01*
X153687557Y-61344872D01*
X153687610Y-61244140D01*
X153687949Y-61140414D01*
X153688807Y-61060519D01*
X153690410Y-61000971D01*
X153692988Y-60958284D01*
X153696769Y-60928975D01*
X153701982Y-60909559D01*
X153708855Y-60896552D01*
X153717617Y-60886470D01*
X153756470Y-60861145D01*
X153800579Y-60862264D01*
G37*
X153886337Y-52320839D02*
X154025779Y-52355005D01*
X154157955Y-52416325D01*
X154278699Y-52504810D01*
X154383846Y-52620470D01*
X154469230Y-52763313D01*
X154492121Y-52813633D01*
X154510666Y-52864636D01*
X154521072Y-52915624D01*
X154525633Y-52978691D01*
X154526643Y-53065929D01*
X154526032Y-53138539D01*
X154522350Y-53205270D01*
X154513322Y-53257334D01*
X154496694Y-53306686D01*
X154470212Y-53365286D01*
X154462552Y-53380902D01*
X154372006Y-53523893D01*
X154258125Y-53641543D01*
X154124141Y-53731089D01*
X153973286Y-53789772D01*
X153895881Y-53806147D01*
X153738849Y-53813810D01*
X153586753Y-53789016D01*
X153444054Y-53734306D01*
X153315212Y-53652223D01*
X153204686Y-53545309D01*
X153116936Y-53416107D01*
X153056423Y-53267158D01*
X153034283Y-53145265D01*
X153032288Y-53010751D01*
X153050295Y-52879908D01*
X153087446Y-52766572D01*
X153130372Y-52685543D01*
X153225933Y-52556987D01*
X153339221Y-52455527D01*
X153466071Y-52381172D01*
X153602318Y-52333933D01*
X153743795Y-52313818D01*
X153886337Y-52320839D01*
G36*
X153886337Y-52320839D02*
G01*
X154025779Y-52355005D01*
X154157955Y-52416325D01*
X154278699Y-52504810D01*
X154383846Y-52620470D01*
X154469230Y-52763313D01*
X154492121Y-52813633D01*
X154510666Y-52864636D01*
X154521072Y-52915624D01*
X154525633Y-52978691D01*
X154526643Y-53065929D01*
X154526032Y-53138539D01*
X154522350Y-53205270D01*
X154513322Y-53257334D01*
X154496694Y-53306686D01*
X154470212Y-53365286D01*
X154462552Y-53380902D01*
X154372006Y-53523893D01*
X154258125Y-53641543D01*
X154124141Y-53731089D01*
X153973286Y-53789772D01*
X153895881Y-53806147D01*
X153738849Y-53813810D01*
X153586753Y-53789016D01*
X153444054Y-53734306D01*
X153315212Y-53652223D01*
X153204686Y-53545309D01*
X153116936Y-53416107D01*
X153056423Y-53267158D01*
X153034283Y-53145265D01*
X153032288Y-53010751D01*
X153050295Y-52879908D01*
X153087446Y-52766572D01*
X153130372Y-52685543D01*
X153225933Y-52556987D01*
X153339221Y-52455527D01*
X153466071Y-52381172D01*
X153602318Y-52333933D01*
X153743795Y-52313818D01*
X153886337Y-52320839D01*
G37*
X143375531Y-60856412D02*
X143500843Y-60856532D01*
X143600048Y-60856984D01*
X143676478Y-60857972D01*
X143733459Y-60859697D01*
X143774323Y-60862361D01*
X143802397Y-60866169D01*
X143821012Y-60871321D01*
X143833496Y-60878020D01*
X143843179Y-60886470D01*
X143868216Y-60930029D01*
X143870142Y-60980057D01*
X143848364Y-61024310D01*
X143846553Y-61026245D01*
X143831638Y-61037376D01*
X143808868Y-61044771D01*
X143772696Y-61049157D01*
X143717573Y-61051256D01*
X143637950Y-61051795D01*
X143452409Y-61051795D01*
X143452409Y-61402963D01*
X143452309Y-61503918D01*
X143451766Y-61592674D01*
X143450458Y-61658955D01*
X143448067Y-61706773D01*
X143444271Y-61740146D01*
X143438752Y-61763086D01*
X143431188Y-61779610D01*
X143421259Y-61793733D01*
X143418210Y-61797469D01*
X143376700Y-61827614D01*
X143330929Y-61829696D01*
X143287084Y-61803274D01*
X143277793Y-61792523D01*
X143270508Y-61778412D01*
X143265156Y-61757319D01*
X143261440Y-61725398D01*
X143259064Y-61678802D01*
X143257734Y-61613685D01*
X143257153Y-61526201D01*
X143257025Y-61412505D01*
X143257025Y-61051795D01*
X143062731Y-61051795D01*
X143047953Y-61051794D01*
X142972708Y-61051494D01*
X142920992Y-61049977D01*
X142887185Y-61046250D01*
X142865668Y-61039318D01*
X142850821Y-61028186D01*
X142837024Y-61011860D01*
X142815926Y-60971003D01*
X142820056Y-60926029D01*
X142854197Y-60882712D01*
X142860775Y-60877763D01*
X142874369Y-60871325D01*
X142894906Y-60866314D01*
X142925689Y-60862557D01*
X142970020Y-60859876D01*
X143031201Y-60858096D01*
X143112535Y-60857043D01*
X143217323Y-60856539D01*
X143348867Y-60856410D01*
X143375531Y-60856412D01*
G36*
X143375531Y-60856412D02*
G01*
X143500843Y-60856532D01*
X143600048Y-60856984D01*
X143676478Y-60857972D01*
X143733459Y-60859697D01*
X143774323Y-60862361D01*
X143802397Y-60866169D01*
X143821012Y-60871321D01*
X143833496Y-60878020D01*
X143843179Y-60886470D01*
X143868216Y-60930029D01*
X143870142Y-60980057D01*
X143848364Y-61024310D01*
X143846553Y-61026245D01*
X143831638Y-61037376D01*
X143808868Y-61044771D01*
X143772696Y-61049157D01*
X143717573Y-61051256D01*
X143637950Y-61051795D01*
X143452409Y-61051795D01*
X143452409Y-61402963D01*
X143452309Y-61503918D01*
X143451766Y-61592674D01*
X143450458Y-61658955D01*
X143448067Y-61706773D01*
X143444271Y-61740146D01*
X143438752Y-61763086D01*
X143431188Y-61779610D01*
X143421259Y-61793733D01*
X143418210Y-61797469D01*
X143376700Y-61827614D01*
X143330929Y-61829696D01*
X143287084Y-61803274D01*
X143277793Y-61792523D01*
X143270508Y-61778412D01*
X143265156Y-61757319D01*
X143261440Y-61725398D01*
X143259064Y-61678802D01*
X143257734Y-61613685D01*
X143257153Y-61526201D01*
X143257025Y-61412505D01*
X143257025Y-61051795D01*
X143062731Y-61051795D01*
X143047953Y-61051794D01*
X142972708Y-61051494D01*
X142920992Y-61049977D01*
X142887185Y-61046250D01*
X142865668Y-61039318D01*
X142850821Y-61028186D01*
X142837024Y-61011860D01*
X142815926Y-60971003D01*
X142820056Y-60926029D01*
X142854197Y-60882712D01*
X142860775Y-60877763D01*
X142874369Y-60871325D01*
X142894906Y-60866314D01*
X142925689Y-60862557D01*
X142970020Y-60859876D01*
X143031201Y-60858096D01*
X143112535Y-60857043D01*
X143217323Y-60856539D01*
X143348867Y-60856410D01*
X143375531Y-60856412D01*
G37*
X142475486Y-60886470D02*
X142482985Y-60894711D01*
X142489762Y-60905636D01*
X142495202Y-60921315D01*
X142499434Y-60944559D01*
X142502584Y-60978181D01*
X142504782Y-61024992D01*
X142506155Y-61087803D01*
X142506832Y-61169427D01*
X142506940Y-61272674D01*
X142506608Y-61400357D01*
X142505964Y-61555286D01*
X142505872Y-61574158D01*
X142505092Y-61656386D01*
X142503331Y-61714544D01*
X142499942Y-61753660D01*
X142494277Y-61778761D01*
X142485688Y-61794876D01*
X142473527Y-61807032D01*
X142428983Y-61830220D01*
X142382454Y-61826357D01*
X142341311Y-61793733D01*
X142329316Y-61776155D01*
X142319396Y-61751477D01*
X142313581Y-61716824D01*
X142310845Y-61665505D01*
X142310161Y-61590833D01*
X142310161Y-61427535D01*
X141648859Y-61427535D01*
X141648859Y-61607038D01*
X141648762Y-61654688D01*
X141647747Y-61716370D01*
X141644849Y-61757022D01*
X141639128Y-61782358D01*
X141629644Y-61798092D01*
X141615456Y-61809937D01*
X141572518Y-61830000D01*
X141525539Y-61826449D01*
X141484625Y-61793733D01*
X141478426Y-61785405D01*
X141470524Y-61771394D01*
X141464491Y-61752848D01*
X141460077Y-61726123D01*
X141457029Y-61687570D01*
X141455097Y-61633544D01*
X141454028Y-61560398D01*
X141453571Y-61464486D01*
X141453475Y-61342162D01*
X141453475Y-60930192D01*
X141490365Y-60893301D01*
X141532141Y-60863688D01*
X141576381Y-60860107D01*
X141618800Y-60886470D01*
X141629831Y-60899478D01*
X141639699Y-60920636D01*
X141645474Y-60952545D01*
X141648184Y-61001636D01*
X141648859Y-61074339D01*
X141648859Y-61232150D01*
X142310161Y-61232150D01*
X142310161Y-61078360D01*
X142310744Y-61009533D01*
X142313359Y-60963568D01*
X142319371Y-60933511D01*
X142330147Y-60912407D01*
X142347052Y-60893301D01*
X142388828Y-60863688D01*
X142433067Y-60860107D01*
X142475486Y-60886470D01*
G36*
X142475486Y-60886470D02*
G01*
X142482985Y-60894711D01*
X142489762Y-60905636D01*
X142495202Y-60921315D01*
X142499434Y-60944559D01*
X142502584Y-60978181D01*
X142504782Y-61024992D01*
X142506155Y-61087803D01*
X142506832Y-61169427D01*
X142506940Y-61272674D01*
X142506608Y-61400357D01*
X142505964Y-61555286D01*
X142505872Y-61574158D01*
X142505092Y-61656386D01*
X142503331Y-61714544D01*
X142499942Y-61753660D01*
X142494277Y-61778761D01*
X142485688Y-61794876D01*
X142473527Y-61807032D01*
X142428983Y-61830220D01*
X142382454Y-61826357D01*
X142341311Y-61793733D01*
X142329316Y-61776155D01*
X142319396Y-61751477D01*
X142313581Y-61716824D01*
X142310845Y-61665505D01*
X142310161Y-61590833D01*
X142310161Y-61427535D01*
X141648859Y-61427535D01*
X141648859Y-61607038D01*
X141648762Y-61654688D01*
X141647747Y-61716370D01*
X141644849Y-61757022D01*
X141639128Y-61782358D01*
X141629644Y-61798092D01*
X141615456Y-61809937D01*
X141572518Y-61830000D01*
X141525539Y-61826449D01*
X141484625Y-61793733D01*
X141478426Y-61785405D01*
X141470524Y-61771394D01*
X141464491Y-61752848D01*
X141460077Y-61726123D01*
X141457029Y-61687570D01*
X141455097Y-61633544D01*
X141454028Y-61560398D01*
X141453571Y-61464486D01*
X141453475Y-61342162D01*
X141453475Y-60930192D01*
X141490365Y-60893301D01*
X141532141Y-60863688D01*
X141576381Y-60860107D01*
X141618800Y-60886470D01*
X141629831Y-60899478D01*
X141639699Y-60920636D01*
X141645474Y-60952545D01*
X141648184Y-61001636D01*
X141648859Y-61074339D01*
X141648859Y-61232150D01*
X142310161Y-61232150D01*
X142310161Y-61078360D01*
X142310744Y-61009533D01*
X142313359Y-60963568D01*
X142319371Y-60933511D01*
X142330147Y-60912407D01*
X142347052Y-60893301D01*
X142388828Y-60863688D01*
X142433067Y-60860107D01*
X142475486Y-60886470D01*
G37*
X148740071Y-61670311D02*
X148737449Y-61713950D01*
X148733550Y-61744466D01*
X148728122Y-61765504D01*
X148720914Y-61780711D01*
X148711674Y-61793733D01*
X148680524Y-61833334D01*
X148459928Y-61832543D01*
X148413602Y-61832146D01*
X148282485Y-61827579D01*
X148174696Y-61817351D01*
X148085369Y-61800632D01*
X148009637Y-61776595D01*
X147942634Y-61744409D01*
X147938162Y-61741857D01*
X147861194Y-61692972D01*
X147804805Y-61643757D01*
X147761115Y-61585862D01*
X147722239Y-61510937D01*
X147716539Y-61498135D01*
X147686480Y-61414012D01*
X147678845Y-61353362D01*
X147877544Y-61353362D01*
X147885017Y-61386284D01*
X147892640Y-61407424D01*
X147936482Y-61487183D01*
X147999506Y-61548097D01*
X148084401Y-61592212D01*
X148193851Y-61621575D01*
X148197570Y-61622243D01*
X148259193Y-61630181D01*
X148334277Y-61635810D01*
X148407418Y-61637949D01*
X148532409Y-61637949D01*
X148532409Y-61051795D01*
X148415930Y-61052392D01*
X148326836Y-61055688D01*
X148203821Y-61070668D01*
X148098224Y-61096682D01*
X148015713Y-61132594D01*
X147974521Y-61160191D01*
X147937083Y-61199820D01*
X147906010Y-61256307D01*
X147896521Y-61277564D01*
X147880779Y-61320836D01*
X147877544Y-61353362D01*
X147678845Y-61353362D01*
X147677199Y-61340284D01*
X147688651Y-61267024D01*
X147720792Y-61184304D01*
X147721851Y-61182050D01*
X147775707Y-61089624D01*
X147843186Y-61014271D01*
X147926697Y-60954935D01*
X148028647Y-60910563D01*
X148151445Y-60880101D01*
X148297499Y-60862493D01*
X148469217Y-60856687D01*
X148473972Y-60856681D01*
X148553881Y-60856867D01*
X148609706Y-60858247D01*
X148647135Y-60861701D01*
X148671857Y-60868108D01*
X148689560Y-60878348D01*
X148705933Y-60893301D01*
X148742824Y-60930192D01*
X148742824Y-61342162D01*
X148742790Y-61424181D01*
X148742490Y-61529072D01*
X148741668Y-61609900D01*
X148740926Y-61637949D01*
X148740071Y-61670311D01*
G36*
X148740071Y-61670311D02*
G01*
X148737449Y-61713950D01*
X148733550Y-61744466D01*
X148728122Y-61765504D01*
X148720914Y-61780711D01*
X148711674Y-61793733D01*
X148680524Y-61833334D01*
X148459928Y-61832543D01*
X148413602Y-61832146D01*
X148282485Y-61827579D01*
X148174696Y-61817351D01*
X148085369Y-61800632D01*
X148009637Y-61776595D01*
X147942634Y-61744409D01*
X147938162Y-61741857D01*
X147861194Y-61692972D01*
X147804805Y-61643757D01*
X147761115Y-61585862D01*
X147722239Y-61510937D01*
X147716539Y-61498135D01*
X147686480Y-61414012D01*
X147678845Y-61353362D01*
X147877544Y-61353362D01*
X147885017Y-61386284D01*
X147892640Y-61407424D01*
X147936482Y-61487183D01*
X147999506Y-61548097D01*
X148084401Y-61592212D01*
X148193851Y-61621575D01*
X148197570Y-61622243D01*
X148259193Y-61630181D01*
X148334277Y-61635810D01*
X148407418Y-61637949D01*
X148532409Y-61637949D01*
X148532409Y-61051795D01*
X148415930Y-61052392D01*
X148326836Y-61055688D01*
X148203821Y-61070668D01*
X148098224Y-61096682D01*
X148015713Y-61132594D01*
X147974521Y-61160191D01*
X147937083Y-61199820D01*
X147906010Y-61256307D01*
X147896521Y-61277564D01*
X147880779Y-61320836D01*
X147877544Y-61353362D01*
X147678845Y-61353362D01*
X147677199Y-61340284D01*
X147688651Y-61267024D01*
X147720792Y-61184304D01*
X147721851Y-61182050D01*
X147775707Y-61089624D01*
X147843186Y-61014271D01*
X147926697Y-60954935D01*
X148028647Y-60910563D01*
X148151445Y-60880101D01*
X148297499Y-60862493D01*
X148469217Y-60856687D01*
X148473972Y-60856681D01*
X148553881Y-60856867D01*
X148609706Y-60858247D01*
X148647135Y-60861701D01*
X148671857Y-60868108D01*
X148689560Y-60878348D01*
X148705933Y-60893301D01*
X148742824Y-60930192D01*
X148742824Y-61342162D01*
X148742790Y-61424181D01*
X148742490Y-61529072D01*
X148741668Y-61609900D01*
X148740926Y-61637949D01*
X148740071Y-61670311D01*
G37*
X158181662Y-61103192D02*
X158181734Y-61210519D01*
X158181403Y-61344872D01*
X158181351Y-61445605D01*
X158181011Y-61549330D01*
X158180154Y-61629225D01*
X158178551Y-61688773D01*
X158175973Y-61731460D01*
X158172192Y-61760769D01*
X158166979Y-61780185D01*
X158160106Y-61793192D01*
X158151344Y-61803274D01*
X158142068Y-61811574D01*
X158124763Y-61821293D01*
X158099270Y-61827622D01*
X158060123Y-61831266D01*
X158001855Y-61832935D01*
X157919000Y-61833334D01*
X157853834Y-61832834D01*
X157711566Y-61826938D01*
X157592771Y-61813508D01*
X157493188Y-61791423D01*
X157408552Y-61759563D01*
X157334600Y-61716808D01*
X157267067Y-61662038D01*
X157259095Y-61654246D01*
X157210011Y-61589663D01*
X157168607Y-61508705D01*
X157140005Y-61423174D01*
X157132974Y-61371593D01*
X157328974Y-61371593D01*
X157353314Y-61439406D01*
X157392816Y-61500538D01*
X157454986Y-61557000D01*
X157536717Y-61596678D01*
X157642090Y-61622155D01*
X157644074Y-61622472D01*
X157709272Y-61630183D01*
X157787415Y-61635696D01*
X157862025Y-61637835D01*
X157986019Y-61637949D01*
X157986019Y-61051795D01*
X157884569Y-61051776D01*
X157880538Y-61051788D01*
X157812479Y-61054404D01*
X157732461Y-61060694D01*
X157656961Y-61069386D01*
X157590449Y-61081763D01*
X157490927Y-61116735D01*
X157414362Y-61169056D01*
X157359109Y-61239665D01*
X157330861Y-61307919D01*
X157328974Y-61371593D01*
X157132974Y-61371593D01*
X157129332Y-61344872D01*
X157131035Y-61316625D01*
X157147427Y-61240184D01*
X157177421Y-61160421D01*
X157216337Y-61088462D01*
X157259495Y-61035433D01*
X157285512Y-61012769D01*
X157358353Y-60960597D01*
X157438638Y-60920483D01*
X157530763Y-60891246D01*
X157639125Y-60871699D01*
X157768119Y-60860660D01*
X157922143Y-60856944D01*
X157974708Y-60856409D01*
X158035566Y-60855859D01*
X158083229Y-60858261D01*
X158119297Y-60866625D01*
X158145368Y-60883960D01*
X158163041Y-60913275D01*
X158173915Y-60957579D01*
X158179590Y-61019881D01*
X158180384Y-61051795D01*
X158181662Y-61103192D01*
G36*
X158181662Y-61103192D02*
G01*
X158181734Y-61210519D01*
X158181403Y-61344872D01*
X158181351Y-61445605D01*
X158181011Y-61549330D01*
X158180154Y-61629225D01*
X158178551Y-61688773D01*
X158175973Y-61731460D01*
X158172192Y-61760769D01*
X158166979Y-61780185D01*
X158160106Y-61793192D01*
X158151344Y-61803274D01*
X158142068Y-61811574D01*
X158124763Y-61821293D01*
X158099270Y-61827622D01*
X158060123Y-61831266D01*
X158001855Y-61832935D01*
X157919000Y-61833334D01*
X157853834Y-61832834D01*
X157711566Y-61826938D01*
X157592771Y-61813508D01*
X157493188Y-61791423D01*
X157408552Y-61759563D01*
X157334600Y-61716808D01*
X157267067Y-61662038D01*
X157259095Y-61654246D01*
X157210011Y-61589663D01*
X157168607Y-61508705D01*
X157140005Y-61423174D01*
X157132974Y-61371593D01*
X157328974Y-61371593D01*
X157353314Y-61439406D01*
X157392816Y-61500538D01*
X157454986Y-61557000D01*
X157536717Y-61596678D01*
X157642090Y-61622155D01*
X157644074Y-61622472D01*
X157709272Y-61630183D01*
X157787415Y-61635696D01*
X157862025Y-61637835D01*
X157986019Y-61637949D01*
X157986019Y-61051795D01*
X157884569Y-61051776D01*
X157880538Y-61051788D01*
X157812479Y-61054404D01*
X157732461Y-61060694D01*
X157656961Y-61069386D01*
X157590449Y-61081763D01*
X157490927Y-61116735D01*
X157414362Y-61169056D01*
X157359109Y-61239665D01*
X157330861Y-61307919D01*
X157328974Y-61371593D01*
X157132974Y-61371593D01*
X157129332Y-61344872D01*
X157131035Y-61316625D01*
X157147427Y-61240184D01*
X157177421Y-61160421D01*
X157216337Y-61088462D01*
X157259495Y-61035433D01*
X157285512Y-61012769D01*
X157358353Y-60960597D01*
X157438638Y-60920483D01*
X157530763Y-60891246D01*
X157639125Y-60871699D01*
X157768119Y-60860660D01*
X157922143Y-60856944D01*
X157974708Y-60856409D01*
X158035566Y-60855859D01*
X158083229Y-60858261D01*
X158119297Y-60866625D01*
X158145368Y-60883960D01*
X158163041Y-60913275D01*
X158173915Y-60957579D01*
X158179590Y-61019881D01*
X158180384Y-61051795D01*
X158181662Y-61103192D01*
G37*
X151598184Y-60854846D02*
X151613372Y-60863017D01*
X151627416Y-60877212D01*
X151642443Y-60896011D01*
X151648371Y-60903948D01*
X151656357Y-60917920D01*
X151662454Y-60936327D01*
X151666916Y-60962827D01*
X151669997Y-61001083D01*
X151671951Y-61054755D01*
X151673033Y-61127503D01*
X151673495Y-61222988D01*
X151673593Y-61344872D01*
X151673562Y-61422797D01*
X151673272Y-61528091D01*
X151672461Y-61609227D01*
X151670875Y-61669866D01*
X151668262Y-61713669D01*
X151664366Y-61744296D01*
X151658933Y-61765409D01*
X151651710Y-61780667D01*
X151642443Y-61793733D01*
X151601931Y-61826209D01*
X151555410Y-61830042D01*
X151506175Y-61804626D01*
X151500605Y-61800000D01*
X151489720Y-61788646D01*
X151481651Y-61773268D01*
X151475816Y-61749526D01*
X151471633Y-61713084D01*
X151468521Y-61659604D01*
X151465897Y-61584747D01*
X151463179Y-61484177D01*
X151455664Y-61192435D01*
X151102469Y-61512814D01*
X151004169Y-61601718D01*
X150917391Y-61679091D01*
X150847902Y-61738946D01*
X150793217Y-61782777D01*
X150750854Y-61812077D01*
X150718332Y-61828340D01*
X150693166Y-61833060D01*
X150672875Y-61827731D01*
X150654976Y-61813846D01*
X150636987Y-61792899D01*
X150628672Y-61781605D01*
X150621174Y-61767523D01*
X150615568Y-61748673D01*
X150611638Y-61721443D01*
X150609168Y-61682221D01*
X150607944Y-61627394D01*
X150607751Y-61553348D01*
X150608373Y-61456471D01*
X150609594Y-61333150D01*
X150614007Y-60913835D01*
X150649489Y-60885123D01*
X150684191Y-60863566D01*
X150727937Y-60859877D01*
X150773910Y-60885110D01*
X150779651Y-60889882D01*
X150790478Y-60901238D01*
X150798505Y-60916671D01*
X150804310Y-60940510D01*
X150808474Y-60977084D01*
X150811576Y-61030722D01*
X150814193Y-61105754D01*
X150816906Y-61206508D01*
X150824421Y-61499207D01*
X151064895Y-61281138D01*
X151180374Y-61176448D01*
X151281253Y-61085392D01*
X151363979Y-61011702D01*
X151430678Y-60953960D01*
X151483476Y-60910749D01*
X151524499Y-60880649D01*
X151555874Y-60862244D01*
X151579727Y-60854116D01*
X151598184Y-60854846D01*
G36*
X151598184Y-60854846D02*
G01*
X151613372Y-60863017D01*
X151627416Y-60877212D01*
X151642443Y-60896011D01*
X151648371Y-60903948D01*
X151656357Y-60917920D01*
X151662454Y-60936327D01*
X151666916Y-60962827D01*
X151669997Y-61001083D01*
X151671951Y-61054755D01*
X151673033Y-61127503D01*
X151673495Y-61222988D01*
X151673593Y-61344872D01*
X151673562Y-61422797D01*
X151673272Y-61528091D01*
X151672461Y-61609227D01*
X151670875Y-61669866D01*
X151668262Y-61713669D01*
X151664366Y-61744296D01*
X151658933Y-61765409D01*
X151651710Y-61780667D01*
X151642443Y-61793733D01*
X151601931Y-61826209D01*
X151555410Y-61830042D01*
X151506175Y-61804626D01*
X151500605Y-61800000D01*
X151489720Y-61788646D01*
X151481651Y-61773268D01*
X151475816Y-61749526D01*
X151471633Y-61713084D01*
X151468521Y-61659604D01*
X151465897Y-61584747D01*
X151463179Y-61484177D01*
X151455664Y-61192435D01*
X151102469Y-61512814D01*
X151004169Y-61601718D01*
X150917391Y-61679091D01*
X150847902Y-61738946D01*
X150793217Y-61782777D01*
X150750854Y-61812077D01*
X150718332Y-61828340D01*
X150693166Y-61833060D01*
X150672875Y-61827731D01*
X150654976Y-61813846D01*
X150636987Y-61792899D01*
X150628672Y-61781605D01*
X150621174Y-61767523D01*
X150615568Y-61748673D01*
X150611638Y-61721443D01*
X150609168Y-61682221D01*
X150607944Y-61627394D01*
X150607751Y-61553348D01*
X150608373Y-61456471D01*
X150609594Y-61333150D01*
X150614007Y-60913835D01*
X150649489Y-60885123D01*
X150684191Y-60863566D01*
X150727937Y-60859877D01*
X150773910Y-60885110D01*
X150779651Y-60889882D01*
X150790478Y-60901238D01*
X150798505Y-60916671D01*
X150804310Y-60940510D01*
X150808474Y-60977084D01*
X150811576Y-61030722D01*
X150814193Y-61105754D01*
X150816906Y-61206508D01*
X150824421Y-61499207D01*
X151064895Y-61281138D01*
X151180374Y-61176448D01*
X151281253Y-61085392D01*
X151363979Y-61011702D01*
X151430678Y-60953960D01*
X151483476Y-60910749D01*
X151524499Y-60880649D01*
X151555874Y-60862244D01*
X151579727Y-60854116D01*
X151598184Y-60854846D01*
G37*
X152659621Y-60863217D02*
X152800754Y-60884938D01*
X152925652Y-60922285D01*
X153030557Y-60974083D01*
X153111709Y-61039162D01*
X153146418Y-61082913D01*
X153185703Y-61148414D01*
X153219349Y-61220119D01*
X153242847Y-61288241D01*
X153251688Y-61342993D01*
X153249611Y-61369241D01*
X153232381Y-61437583D01*
X153201543Y-61512840D01*
X153161746Y-61584622D01*
X153117640Y-61642542D01*
X153104065Y-61656319D01*
X153014750Y-61725250D01*
X152908074Y-61778362D01*
X152793297Y-61810849D01*
X152720120Y-61821649D01*
X152595700Y-61830442D01*
X152476170Y-61827663D01*
X152366346Y-61814023D01*
X152271044Y-61790232D01*
X152195079Y-61756998D01*
X152143267Y-61715033D01*
X152141436Y-61712403D01*
X152132000Y-61678818D01*
X152126356Y-61615910D01*
X152124480Y-61523428D01*
X152125625Y-61440574D01*
X152131909Y-61377491D01*
X152147472Y-61334750D01*
X152176455Y-61308719D01*
X152222998Y-61295764D01*
X152291241Y-61292253D01*
X152385324Y-61294554D01*
X152450055Y-61298564D01*
X152516884Y-61309471D01*
X152560145Y-61328181D01*
X152583389Y-61356453D01*
X152590167Y-61396048D01*
X152590026Y-61402094D01*
X152578440Y-61448417D01*
X152546475Y-61479594D01*
X152491536Y-61497168D01*
X152411031Y-61502683D01*
X152319865Y-61502683D01*
X152319865Y-61553743D01*
X152319932Y-61565906D01*
X152322888Y-61588873D01*
X152335226Y-61602578D01*
X152363692Y-61611814D01*
X152415031Y-61621376D01*
X152422319Y-61622620D01*
X152551395Y-61635805D01*
X152671206Y-61631918D01*
X152778924Y-61612307D01*
X152871718Y-61578317D01*
X152946760Y-61531293D01*
X153001220Y-61472581D01*
X153032270Y-61403527D01*
X153037079Y-61325478D01*
X153029732Y-61287008D01*
X152994207Y-61212599D01*
X152932713Y-61151810D01*
X152846199Y-61105431D01*
X152735614Y-61074252D01*
X152702763Y-61068329D01*
X152583834Y-61054351D01*
X152477582Y-61055987D01*
X152373613Y-61073209D01*
X152326824Y-61082248D01*
X152266330Y-61083603D01*
X152224639Y-61066919D01*
X152197807Y-61031256D01*
X152189308Y-60993649D01*
X152201938Y-60952078D01*
X152214358Y-60934204D01*
X152259936Y-60902875D01*
X152329995Y-60879082D01*
X152421216Y-60863776D01*
X152530279Y-60857909D01*
X152659621Y-60863217D01*
G36*
X152659621Y-60863217D02*
G01*
X152800754Y-60884938D01*
X152925652Y-60922285D01*
X153030557Y-60974083D01*
X153111709Y-61039162D01*
X153146418Y-61082913D01*
X153185703Y-61148414D01*
X153219349Y-61220119D01*
X153242847Y-61288241D01*
X153251688Y-61342993D01*
X153249611Y-61369241D01*
X153232381Y-61437583D01*
X153201543Y-61512840D01*
X153161746Y-61584622D01*
X153117640Y-61642542D01*
X153104065Y-61656319D01*
X153014750Y-61725250D01*
X152908074Y-61778362D01*
X152793297Y-61810849D01*
X152720120Y-61821649D01*
X152595700Y-61830442D01*
X152476170Y-61827663D01*
X152366346Y-61814023D01*
X152271044Y-61790232D01*
X152195079Y-61756998D01*
X152143267Y-61715033D01*
X152141436Y-61712403D01*
X152132000Y-61678818D01*
X152126356Y-61615910D01*
X152124480Y-61523428D01*
X152125625Y-61440574D01*
X152131909Y-61377491D01*
X152147472Y-61334750D01*
X152176455Y-61308719D01*
X152222998Y-61295764D01*
X152291241Y-61292253D01*
X152385324Y-61294554D01*
X152450055Y-61298564D01*
X152516884Y-61309471D01*
X152560145Y-61328181D01*
X152583389Y-61356453D01*
X152590167Y-61396048D01*
X152590026Y-61402094D01*
X152578440Y-61448417D01*
X152546475Y-61479594D01*
X152491536Y-61497168D01*
X152411031Y-61502683D01*
X152319865Y-61502683D01*
X152319865Y-61553743D01*
X152319932Y-61565906D01*
X152322888Y-61588873D01*
X152335226Y-61602578D01*
X152363692Y-61611814D01*
X152415031Y-61621376D01*
X152422319Y-61622620D01*
X152551395Y-61635805D01*
X152671206Y-61631918D01*
X152778924Y-61612307D01*
X152871718Y-61578317D01*
X152946760Y-61531293D01*
X153001220Y-61472581D01*
X153032270Y-61403527D01*
X153037079Y-61325478D01*
X153029732Y-61287008D01*
X152994207Y-61212599D01*
X152932713Y-61151810D01*
X152846199Y-61105431D01*
X152735614Y-61074252D01*
X152702763Y-61068329D01*
X152583834Y-61054351D01*
X152477582Y-61055987D01*
X152373613Y-61073209D01*
X152326824Y-61082248D01*
X152266330Y-61083603D01*
X152224639Y-61066919D01*
X152197807Y-61031256D01*
X152189308Y-60993649D01*
X152201938Y-60952078D01*
X152214358Y-60934204D01*
X152259936Y-60902875D01*
X152329995Y-60879082D01*
X152421216Y-60863776D01*
X152530279Y-60857909D01*
X152659621Y-60863217D01*
G37*
X150064336Y-60896011D02*
X150070925Y-60904910D01*
X150078706Y-60918984D01*
X150084645Y-60937739D01*
X150088991Y-60964799D01*
X150091990Y-61003790D01*
X150093892Y-61058339D01*
X150094943Y-61132069D01*
X150095392Y-61228608D01*
X150095486Y-61351580D01*
X150095448Y-61439339D01*
X150095139Y-61543607D01*
X150094313Y-61623845D01*
X150092725Y-61683621D01*
X150090132Y-61726502D01*
X150086291Y-61756056D01*
X150080958Y-61775852D01*
X150073890Y-61789457D01*
X150064842Y-61800440D01*
X150058831Y-61806641D01*
X150047874Y-61815277D01*
X150032750Y-61821816D01*
X150009760Y-61826550D01*
X149975204Y-61829769D01*
X149925386Y-61831766D01*
X149856604Y-61832831D01*
X149765161Y-61833256D01*
X149647357Y-61833334D01*
X149621163Y-61833325D01*
X149505302Y-61832970D01*
X149415232Y-61831951D01*
X149347393Y-61830068D01*
X149298224Y-61827123D01*
X149264162Y-61822919D01*
X149241646Y-61817256D01*
X149227115Y-61809937D01*
X149213145Y-61796642D01*
X149195490Y-61755214D01*
X149197064Y-61707434D01*
X149218585Y-61665434D01*
X149221500Y-61662404D01*
X149233066Y-61654059D01*
X149250829Y-61647847D01*
X149278765Y-61643458D01*
X149320851Y-61640584D01*
X149381065Y-61638914D01*
X149463382Y-61638139D01*
X149571780Y-61637949D01*
X149900102Y-61637949D01*
X149900102Y-61427535D01*
X149683838Y-61427535D01*
X149636350Y-61427428D01*
X149562100Y-61426366D01*
X149509993Y-61423697D01*
X149474774Y-61418849D01*
X149451185Y-61411249D01*
X149433971Y-61400325D01*
X149429121Y-61396086D01*
X149404614Y-61354847D01*
X149403770Y-61306471D01*
X149427120Y-61261711D01*
X149427203Y-61261620D01*
X149440078Y-61250135D01*
X149457777Y-61242073D01*
X149485346Y-61236839D01*
X149527831Y-61233837D01*
X149590279Y-61232473D01*
X149677737Y-61232150D01*
X149901602Y-61232150D01*
X149897094Y-61145730D01*
X149892587Y-61059310D01*
X149570295Y-61055245D01*
X149536989Y-61054809D01*
X149428324Y-61052839D01*
X149345354Y-61049665D01*
X149284626Y-61044345D01*
X149242685Y-61035940D01*
X149216078Y-61023506D01*
X149201349Y-61006103D01*
X149195045Y-60982790D01*
X149193711Y-60952626D01*
X149193719Y-60949476D01*
X149195255Y-60922808D01*
X149201643Y-60901782D01*
X149216032Y-60885731D01*
X149241573Y-60873984D01*
X149281419Y-60865874D01*
X149338718Y-60860730D01*
X149416623Y-60857884D01*
X149518284Y-60856667D01*
X149646852Y-60856410D01*
X150033186Y-60856410D01*
X150064336Y-60896011D01*
G36*
X150064336Y-60896011D02*
G01*
X150070925Y-60904910D01*
X150078706Y-60918984D01*
X150084645Y-60937739D01*
X150088991Y-60964799D01*
X150091990Y-61003790D01*
X150093892Y-61058339D01*
X150094943Y-61132069D01*
X150095392Y-61228608D01*
X150095486Y-61351580D01*
X150095448Y-61439339D01*
X150095139Y-61543607D01*
X150094313Y-61623845D01*
X150092725Y-61683621D01*
X150090132Y-61726502D01*
X150086291Y-61756056D01*
X150080958Y-61775852D01*
X150073890Y-61789457D01*
X150064842Y-61800440D01*
X150058831Y-61806641D01*
X150047874Y-61815277D01*
X150032750Y-61821816D01*
X150009760Y-61826550D01*
X149975204Y-61829769D01*
X149925386Y-61831766D01*
X149856604Y-61832831D01*
X149765161Y-61833256D01*
X149647357Y-61833334D01*
X149621163Y-61833325D01*
X149505302Y-61832970D01*
X149415232Y-61831951D01*
X149347393Y-61830068D01*
X149298224Y-61827123D01*
X149264162Y-61822919D01*
X149241646Y-61817256D01*
X149227115Y-61809937D01*
X149213145Y-61796642D01*
X149195490Y-61755214D01*
X149197064Y-61707434D01*
X149218585Y-61665434D01*
X149221500Y-61662404D01*
X149233066Y-61654059D01*
X149250829Y-61647847D01*
X149278765Y-61643458D01*
X149320851Y-61640584D01*
X149381065Y-61638914D01*
X149463382Y-61638139D01*
X149571780Y-61637949D01*
X149900102Y-61637949D01*
X149900102Y-61427535D01*
X149683838Y-61427535D01*
X149636350Y-61427428D01*
X149562100Y-61426366D01*
X149509993Y-61423697D01*
X149474774Y-61418849D01*
X149451185Y-61411249D01*
X149433971Y-61400325D01*
X149429121Y-61396086D01*
X149404614Y-61354847D01*
X149403770Y-61306471D01*
X149427120Y-61261711D01*
X149427203Y-61261620D01*
X149440078Y-61250135D01*
X149457777Y-61242073D01*
X149485346Y-61236839D01*
X149527831Y-61233837D01*
X149590279Y-61232473D01*
X149677737Y-61232150D01*
X149901602Y-61232150D01*
X149897094Y-61145730D01*
X149892587Y-61059310D01*
X149570295Y-61055245D01*
X149536989Y-61054809D01*
X149428324Y-61052839D01*
X149345354Y-61049665D01*
X149284626Y-61044345D01*
X149242685Y-61035940D01*
X149216078Y-61023506D01*
X149201349Y-61006103D01*
X149195045Y-60982790D01*
X149193711Y-60952626D01*
X149193719Y-60949476D01*
X149195255Y-60922808D01*
X149201643Y-60901782D01*
X149216032Y-60885731D01*
X149241573Y-60873984D01*
X149281419Y-60865874D01*
X149338718Y-60860730D01*
X149416623Y-60857884D01*
X149518284Y-60856667D01*
X149646852Y-60856410D01*
X150033186Y-60856410D01*
X150064336Y-60896011D01*
G37*
X156291020Y-60856432D02*
X156393663Y-60856688D01*
X156472142Y-60857466D01*
X156530172Y-60859052D01*
X156571469Y-60861732D01*
X156599750Y-60865790D01*
X156618732Y-60871512D01*
X156632129Y-60879183D01*
X156643660Y-60889090D01*
X156646036Y-60891327D01*
X156655680Y-60901364D01*
X156663191Y-60913370D01*
X156668837Y-60930857D01*
X156672883Y-60957334D01*
X156675596Y-60996315D01*
X156677242Y-61051310D01*
X156678088Y-61125830D01*
X156678400Y-61223387D01*
X156678445Y-61347492D01*
X156678396Y-61444401D01*
X156678065Y-61548481D01*
X156677218Y-61628648D01*
X156675624Y-61688398D01*
X156673053Y-61731228D01*
X156669275Y-61760634D01*
X156664058Y-61780112D01*
X156657171Y-61793160D01*
X156648386Y-61803274D01*
X156643947Y-61807504D01*
X156632601Y-61815640D01*
X156616622Y-61821863D01*
X156592377Y-61826430D01*
X156556235Y-61829595D01*
X156504563Y-61831613D01*
X156433728Y-61832739D01*
X156340098Y-61833227D01*
X156220043Y-61833334D01*
X156163981Y-61833318D01*
X156055945Y-61833075D01*
X155972745Y-61832339D01*
X155910749Y-61830854D01*
X155866325Y-61828365D01*
X155835840Y-61824618D01*
X155815662Y-61819357D01*
X155802159Y-61812327D01*
X155791699Y-61803274D01*
X155772093Y-61774518D01*
X155761640Y-61735641D01*
X155768961Y-61703813D01*
X155791699Y-61668008D01*
X155798328Y-61661873D01*
X155811342Y-61653503D01*
X155830135Y-61647345D01*
X155858753Y-61643063D01*
X155901243Y-61640320D01*
X155961651Y-61638778D01*
X156044024Y-61638100D01*
X156152409Y-61637949D01*
X156483060Y-61637949D01*
X156483060Y-61427535D01*
X156268475Y-61427535D01*
X156220789Y-61427341D01*
X156133420Y-61425048D01*
X156070525Y-61419143D01*
X156028274Y-61408353D01*
X156002837Y-61391404D01*
X155990384Y-61367021D01*
X155987084Y-61333931D01*
X155988146Y-61306963D01*
X155995138Y-61277905D01*
X156012171Y-61257467D01*
X156043245Y-61244159D01*
X156092357Y-61236496D01*
X156163508Y-61232989D01*
X156260696Y-61232150D01*
X156484560Y-61232150D01*
X156475546Y-61059310D01*
X156145745Y-61055251D01*
X156062414Y-61054081D01*
X155971268Y-61052158D01*
X155903496Y-61049588D01*
X155855230Y-61046059D01*
X155822602Y-61041261D01*
X155801746Y-61034885D01*
X155788793Y-61026620D01*
X155780784Y-61018095D01*
X155763465Y-60975916D01*
X155768205Y-60928404D01*
X155794533Y-60887055D01*
X155798863Y-60883163D01*
X155810818Y-60874707D01*
X155826932Y-60868247D01*
X155850905Y-60863515D01*
X155886437Y-60860244D01*
X155937227Y-60858165D01*
X156006976Y-60857012D01*
X156099384Y-60856516D01*
X156218150Y-60856410D01*
X156291020Y-60856432D01*
G36*
X156291020Y-60856432D02*
G01*
X156393663Y-60856688D01*
X156472142Y-60857466D01*
X156530172Y-60859052D01*
X156571469Y-60861732D01*
X156599750Y-60865790D01*
X156618732Y-60871512D01*
X156632129Y-60879183D01*
X156643660Y-60889090D01*
X156646036Y-60891327D01*
X156655680Y-60901364D01*
X156663191Y-60913370D01*
X156668837Y-60930857D01*
X156672883Y-60957334D01*
X156675596Y-60996315D01*
X156677242Y-61051310D01*
X156678088Y-61125830D01*
X156678400Y-61223387D01*
X156678445Y-61347492D01*
X156678396Y-61444401D01*
X156678065Y-61548481D01*
X156677218Y-61628648D01*
X156675624Y-61688398D01*
X156673053Y-61731228D01*
X156669275Y-61760634D01*
X156664058Y-61780112D01*
X156657171Y-61793160D01*
X156648386Y-61803274D01*
X156643947Y-61807504D01*
X156632601Y-61815640D01*
X156616622Y-61821863D01*
X156592377Y-61826430D01*
X156556235Y-61829595D01*
X156504563Y-61831613D01*
X156433728Y-61832739D01*
X156340098Y-61833227D01*
X156220043Y-61833334D01*
X156163981Y-61833318D01*
X156055945Y-61833075D01*
X155972745Y-61832339D01*
X155910749Y-61830854D01*
X155866325Y-61828365D01*
X155835840Y-61824618D01*
X155815662Y-61819357D01*
X155802159Y-61812327D01*
X155791699Y-61803274D01*
X155772093Y-61774518D01*
X155761640Y-61735641D01*
X155768961Y-61703813D01*
X155791699Y-61668008D01*
X155798328Y-61661873D01*
X155811342Y-61653503D01*
X155830135Y-61647345D01*
X155858753Y-61643063D01*
X155901243Y-61640320D01*
X155961651Y-61638778D01*
X156044024Y-61638100D01*
X156152409Y-61637949D01*
X156483060Y-61637949D01*
X156483060Y-61427535D01*
X156268475Y-61427535D01*
X156220789Y-61427341D01*
X156133420Y-61425048D01*
X156070525Y-61419143D01*
X156028274Y-61408353D01*
X156002837Y-61391404D01*
X155990384Y-61367021D01*
X155987084Y-61333931D01*
X155988146Y-61306963D01*
X155995138Y-61277905D01*
X156012171Y-61257467D01*
X156043245Y-61244159D01*
X156092357Y-61236496D01*
X156163508Y-61232989D01*
X156260696Y-61232150D01*
X156484560Y-61232150D01*
X156475546Y-61059310D01*
X156145745Y-61055251D01*
X156062414Y-61054081D01*
X155971268Y-61052158D01*
X155903496Y-61049588D01*
X155855230Y-61046059D01*
X155822602Y-61041261D01*
X155801746Y-61034885D01*
X155788793Y-61026620D01*
X155780784Y-61018095D01*
X155763465Y-60975916D01*
X155768205Y-60928404D01*
X155794533Y-60887055D01*
X155798863Y-60883163D01*
X155810818Y-60874707D01*
X155826932Y-60868247D01*
X155850905Y-60863515D01*
X155886437Y-60860244D01*
X155937227Y-60858165D01*
X156006976Y-60857012D01*
X156099384Y-60856516D01*
X156218150Y-60856410D01*
X156291020Y-60856432D01*
G37*
X144885208Y-60868940D02*
X144909119Y-60893585D01*
X144936546Y-60934966D01*
X144969607Y-60995790D01*
X145010420Y-61078763D01*
X145061104Y-61186594D01*
X145080587Y-61228376D01*
X145120193Y-61312496D01*
X145154935Y-61385196D01*
X145182886Y-61442507D01*
X145202120Y-61480455D01*
X145210711Y-61495069D01*
X145212520Y-61494296D01*
X145225823Y-61475727D01*
X145248844Y-61436401D01*
X145278928Y-61380994D01*
X145313422Y-61314180D01*
X145334687Y-61272258D01*
X145373230Y-61198562D01*
X145403170Y-61146617D01*
X145427422Y-61112697D01*
X145448898Y-61093079D01*
X145470512Y-61084040D01*
X145495177Y-61081854D01*
X145509160Y-61082487D01*
X145530616Y-61088088D01*
X145551005Y-61102552D01*
X145573103Y-61129542D01*
X145599689Y-61172725D01*
X145633540Y-61235765D01*
X145677434Y-61322328D01*
X145690392Y-61347963D01*
X145722954Y-61410096D01*
X145749895Y-61458241D01*
X145768710Y-61488049D01*
X145776897Y-61495168D01*
X145778717Y-61490813D01*
X145791198Y-61462975D01*
X145813646Y-61413796D01*
X145844156Y-61347426D01*
X145880823Y-61268014D01*
X145921742Y-61179707D01*
X145957309Y-61103525D01*
X145996749Y-61020995D01*
X146027465Y-60960100D01*
X146051401Y-60917442D01*
X146070502Y-60889625D01*
X146086713Y-60873253D01*
X146101978Y-60864931D01*
X146114506Y-60861080D01*
X146147930Y-60860882D01*
X146184067Y-60881308D01*
X146185798Y-60882620D01*
X146215200Y-60912756D01*
X146229909Y-60942345D01*
X146229971Y-60943197D01*
X146223926Y-60966711D01*
X146206799Y-61012731D01*
X146180493Y-61077096D01*
X146146910Y-61155645D01*
X146107952Y-61244221D01*
X146065522Y-61338661D01*
X146021522Y-61434807D01*
X145977854Y-61528499D01*
X145936420Y-61615576D01*
X145899123Y-61691880D01*
X145867864Y-61753249D01*
X145844546Y-61795525D01*
X145831071Y-61814547D01*
X145785262Y-61832345D01*
X145729748Y-61823876D01*
X145722606Y-61817622D01*
X145701532Y-61788131D01*
X145671973Y-61739190D01*
X145636803Y-61675661D01*
X145598894Y-61602407D01*
X145492686Y-61390397D01*
X145395248Y-61585563D01*
X145382340Y-61611246D01*
X145346421Y-61680940D01*
X145314431Y-61740571D01*
X145289449Y-61784486D01*
X145274556Y-61807032D01*
X145273030Y-61808687D01*
X145235591Y-61829039D01*
X145188911Y-61831280D01*
X145147584Y-61814547D01*
X145144354Y-61810754D01*
X145128031Y-61783294D01*
X145101754Y-61733300D01*
X145067266Y-61664298D01*
X145026310Y-61579814D01*
X144980630Y-61483373D01*
X144931969Y-61378503D01*
X144905022Y-61319759D01*
X144856064Y-61212281D01*
X144818178Y-61127502D01*
X144790187Y-61062353D01*
X144770912Y-61013764D01*
X144759178Y-60978667D01*
X144753805Y-60953992D01*
X144753616Y-60936672D01*
X144757434Y-60923636D01*
X144776948Y-60895834D01*
X144812366Y-60868806D01*
X144813372Y-60868350D01*
X144839453Y-60859030D01*
X144862692Y-60858324D01*
X144885208Y-60868940D01*
G36*
X144885208Y-60868940D02*
G01*
X144909119Y-60893585D01*
X144936546Y-60934966D01*
X144969607Y-60995790D01*
X145010420Y-61078763D01*
X145061104Y-61186594D01*
X145080587Y-61228376D01*
X145120193Y-61312496D01*
X145154935Y-61385196D01*
X145182886Y-61442507D01*
X145202120Y-61480455D01*
X145210711Y-61495069D01*
X145212520Y-61494296D01*
X145225823Y-61475727D01*
X145248844Y-61436401D01*
X145278928Y-61380994D01*
X145313422Y-61314180D01*
X145334687Y-61272258D01*
X145373230Y-61198562D01*
X145403170Y-61146617D01*
X145427422Y-61112697D01*
X145448898Y-61093079D01*
X145470512Y-61084040D01*
X145495177Y-61081854D01*
X145509160Y-61082487D01*
X145530616Y-61088088D01*
X145551005Y-61102552D01*
X145573103Y-61129542D01*
X145599689Y-61172725D01*
X145633540Y-61235765D01*
X145677434Y-61322328D01*
X145690392Y-61347963D01*
X145722954Y-61410096D01*
X145749895Y-61458241D01*
X145768710Y-61488049D01*
X145776897Y-61495168D01*
X145778717Y-61490813D01*
X145791198Y-61462975D01*
X145813646Y-61413796D01*
X145844156Y-61347426D01*
X145880823Y-61268014D01*
X145921742Y-61179707D01*
X145957309Y-61103525D01*
X145996749Y-61020995D01*
X146027465Y-60960100D01*
X146051401Y-60917442D01*
X146070502Y-60889625D01*
X146086713Y-60873253D01*
X146101978Y-60864931D01*
X146114506Y-60861080D01*
X146147930Y-60860882D01*
X146184067Y-60881308D01*
X146185798Y-60882620D01*
X146215200Y-60912756D01*
X146229909Y-60942345D01*
X146229971Y-60943197D01*
X146223926Y-60966711D01*
X146206799Y-61012731D01*
X146180493Y-61077096D01*
X146146910Y-61155645D01*
X146107952Y-61244221D01*
X146065522Y-61338661D01*
X146021522Y-61434807D01*
X145977854Y-61528499D01*
X145936420Y-61615576D01*
X145899123Y-61691880D01*
X145867864Y-61753249D01*
X145844546Y-61795525D01*
X145831071Y-61814547D01*
X145785262Y-61832345D01*
X145729748Y-61823876D01*
X145722606Y-61817622D01*
X145701532Y-61788131D01*
X145671973Y-61739190D01*
X145636803Y-61675661D01*
X145598894Y-61602407D01*
X145492686Y-61390397D01*
X145395248Y-61585563D01*
X145382340Y-61611246D01*
X145346421Y-61680940D01*
X145314431Y-61740571D01*
X145289449Y-61784486D01*
X145274556Y-61807032D01*
X145273030Y-61808687D01*
X145235591Y-61829039D01*
X145188911Y-61831280D01*
X145147584Y-61814547D01*
X145144354Y-61810754D01*
X145128031Y-61783294D01*
X145101754Y-61733300D01*
X145067266Y-61664298D01*
X145026310Y-61579814D01*
X144980630Y-61483373D01*
X144931969Y-61378503D01*
X144905022Y-61319759D01*
X144856064Y-61212281D01*
X144818178Y-61127502D01*
X144790187Y-61062353D01*
X144770912Y-61013764D01*
X144759178Y-60978667D01*
X144753805Y-60953992D01*
X144753616Y-60936672D01*
X144757434Y-60923636D01*
X144776948Y-60895834D01*
X144812366Y-60868806D01*
X144813372Y-60868350D01*
X144839453Y-60859030D01*
X144862692Y-60858324D01*
X144885208Y-60868940D01*
G37*
X154938515Y-60857568D02*
X155026713Y-60864797D01*
X155100338Y-60877576D01*
X155168081Y-60897361D01*
X155263024Y-60941472D01*
X155331132Y-60998298D01*
X155372169Y-61067615D01*
X155385901Y-61149199D01*
X155384653Y-61190802D01*
X155376941Y-61223816D01*
X155357227Y-61252666D01*
X155319986Y-61289080D01*
X155309364Y-61298837D01*
X155277798Y-61326666D01*
X155247984Y-61349260D01*
X155215986Y-61367837D01*
X155177872Y-61383615D01*
X155129708Y-61397812D01*
X155067560Y-61411647D01*
X154987494Y-61426338D01*
X154885576Y-61443103D01*
X154757874Y-61463161D01*
X154733425Y-61467200D01*
X154650442Y-61485334D01*
X154590241Y-61506281D01*
X154555247Y-61529009D01*
X154547886Y-61552487D01*
X154551375Y-61558172D01*
X154575250Y-61578229D01*
X154612695Y-61600375D01*
X154629736Y-61608351D01*
X154658092Y-61617927D01*
X154693221Y-61624287D01*
X154740943Y-61628040D01*
X154807076Y-61629794D01*
X154897439Y-61630158D01*
X154921117Y-61630061D01*
X155011145Y-61628582D01*
X155097602Y-61625619D01*
X155171659Y-61621537D01*
X155224489Y-61616698D01*
X155271767Y-61611282D01*
X155310712Y-61610240D01*
X155335876Y-61616363D01*
X155355998Y-61630576D01*
X155360866Y-61635359D01*
X155382623Y-61677662D01*
X155380865Y-61725130D01*
X155355627Y-61765895D01*
X155328506Y-61781346D01*
X155280599Y-61798248D01*
X155224118Y-61811628D01*
X155219524Y-61812425D01*
X155162716Y-61819370D01*
X155086313Y-61825193D01*
X154999752Y-61829304D01*
X154912469Y-61831113D01*
X154890857Y-61831169D01*
X154759968Y-61827870D01*
X154653390Y-61817211D01*
X154566612Y-61797864D01*
X154495124Y-61768502D01*
X154434413Y-61727798D01*
X154379969Y-61674424D01*
X154353181Y-61639507D01*
X154337702Y-61600169D01*
X154333830Y-61547292D01*
X154334017Y-61531357D01*
X154339173Y-61487846D01*
X154355662Y-61452531D01*
X154389165Y-61411460D01*
X154417406Y-61381984D01*
X154452549Y-61351967D01*
X154492113Y-61327513D01*
X154540347Y-61307202D01*
X154601500Y-61289612D01*
X154679819Y-61273323D01*
X154779554Y-61256913D01*
X154904954Y-61238962D01*
X154965280Y-61229630D01*
X155055752Y-61210246D01*
X155121169Y-61188280D01*
X155160534Y-61164451D01*
X155172850Y-61139482D01*
X155157118Y-61114093D01*
X155112342Y-61089005D01*
X155108287Y-61087389D01*
X155046566Y-61071309D01*
X154963156Y-61060391D01*
X154865389Y-61054852D01*
X154760598Y-61054909D01*
X154656115Y-61060778D01*
X154559273Y-61072675D01*
X154554045Y-61073539D01*
X154489053Y-61083800D01*
X154446114Y-61088608D01*
X154418159Y-61087813D01*
X154398117Y-61081261D01*
X154378918Y-61068801D01*
X154377361Y-61067642D01*
X154344720Y-61027204D01*
X154338338Y-60979939D01*
X154359383Y-60933899D01*
X154365435Y-60927966D01*
X154404862Y-60907810D01*
X154467412Y-60890338D01*
X154547698Y-60875959D01*
X154640337Y-60865084D01*
X154739942Y-60858121D01*
X154841130Y-60855479D01*
X154938515Y-60857568D01*
G36*
X154938515Y-60857568D02*
G01*
X155026713Y-60864797D01*
X155100338Y-60877576D01*
X155168081Y-60897361D01*
X155263024Y-60941472D01*
X155331132Y-60998298D01*
X155372169Y-61067615D01*
X155385901Y-61149199D01*
X155384653Y-61190802D01*
X155376941Y-61223816D01*
X155357227Y-61252666D01*
X155319986Y-61289080D01*
X155309364Y-61298837D01*
X155277798Y-61326666D01*
X155247984Y-61349260D01*
X155215986Y-61367837D01*
X155177872Y-61383615D01*
X155129708Y-61397812D01*
X155067560Y-61411647D01*
X154987494Y-61426338D01*
X154885576Y-61443103D01*
X154757874Y-61463161D01*
X154733425Y-61467200D01*
X154650442Y-61485334D01*
X154590241Y-61506281D01*
X154555247Y-61529009D01*
X154547886Y-61552487D01*
X154551375Y-61558172D01*
X154575250Y-61578229D01*
X154612695Y-61600375D01*
X154629736Y-61608351D01*
X154658092Y-61617927D01*
X154693221Y-61624287D01*
X154740943Y-61628040D01*
X154807076Y-61629794D01*
X154897439Y-61630158D01*
X154921117Y-61630061D01*
X155011145Y-61628582D01*
X155097602Y-61625619D01*
X155171659Y-61621537D01*
X155224489Y-61616698D01*
X155271767Y-61611282D01*
X155310712Y-61610240D01*
X155335876Y-61616363D01*
X155355998Y-61630576D01*
X155360866Y-61635359D01*
X155382623Y-61677662D01*
X155380865Y-61725130D01*
X155355627Y-61765895D01*
X155328506Y-61781346D01*
X155280599Y-61798248D01*
X155224118Y-61811628D01*
X155219524Y-61812425D01*
X155162716Y-61819370D01*
X155086313Y-61825193D01*
X154999752Y-61829304D01*
X154912469Y-61831113D01*
X154890857Y-61831169D01*
X154759968Y-61827870D01*
X154653390Y-61817211D01*
X154566612Y-61797864D01*
X154495124Y-61768502D01*
X154434413Y-61727798D01*
X154379969Y-61674424D01*
X154353181Y-61639507D01*
X154337702Y-61600169D01*
X154333830Y-61547292D01*
X154334017Y-61531357D01*
X154339173Y-61487846D01*
X154355662Y-61452531D01*
X154389165Y-61411460D01*
X154417406Y-61381984D01*
X154452549Y-61351967D01*
X154492113Y-61327513D01*
X154540347Y-61307202D01*
X154601500Y-61289612D01*
X154679819Y-61273323D01*
X154779554Y-61256913D01*
X154904954Y-61238962D01*
X154965280Y-61229630D01*
X155055752Y-61210246D01*
X155121169Y-61188280D01*
X155160534Y-61164451D01*
X155172850Y-61139482D01*
X155157118Y-61114093D01*
X155112342Y-61089005D01*
X155108287Y-61087389D01*
X155046566Y-61071309D01*
X154963156Y-61060391D01*
X154865389Y-61054852D01*
X154760598Y-61054909D01*
X154656115Y-61060778D01*
X154559273Y-61072675D01*
X154554045Y-61073539D01*
X154489053Y-61083800D01*
X154446114Y-61088608D01*
X154418159Y-61087813D01*
X154398117Y-61081261D01*
X154378918Y-61068801D01*
X154377361Y-61067642D01*
X154344720Y-61027204D01*
X154338338Y-60979939D01*
X154359383Y-60933899D01*
X154365435Y-60927966D01*
X154404862Y-60907810D01*
X154467412Y-60890338D01*
X154547698Y-60875959D01*
X154640337Y-60865084D01*
X154739942Y-60858121D01*
X154841130Y-60855479D01*
X154938515Y-60857568D01*
G37*
X149773834Y-53816031D02*
X150017638Y-53838413D01*
X150244132Y-53883551D01*
X150461742Y-53953345D01*
X150678891Y-54049696D01*
X150893845Y-54172715D01*
X151124534Y-54340422D01*
X151338459Y-54534323D01*
X151530911Y-54749618D01*
X151697180Y-54981507D01*
X151832553Y-55225190D01*
X151844841Y-55251258D01*
X151947750Y-55502881D01*
X152025946Y-55764345D01*
X152080439Y-56040646D01*
X152112241Y-56336779D01*
X152122360Y-56657739D01*
X152110056Y-56989528D01*
X152071001Y-57316276D01*
X152004590Y-57622149D01*
X151910227Y-57909317D01*
X151787320Y-58179949D01*
X151635273Y-58436214D01*
X151492450Y-58632000D01*
X151295243Y-58852289D01*
X151080296Y-59040974D01*
X150847703Y-59197993D01*
X150597558Y-59323285D01*
X150329957Y-59416786D01*
X150044992Y-59478437D01*
X150041740Y-59478917D01*
X149986862Y-59483732D01*
X149904049Y-59487304D01*
X149800958Y-59489465D01*
X149685246Y-59490050D01*
X149564572Y-59488891D01*
X149479997Y-59487192D01*
X149354512Y-59483258D01*
X149253958Y-59477626D01*
X149171083Y-59469694D01*
X149098634Y-59458863D01*
X149029357Y-59444530D01*
X148951416Y-59426007D01*
X148870099Y-59404914D01*
X148796556Y-59382787D01*
X148724112Y-59357033D01*
X148646093Y-59325060D01*
X148555825Y-59284278D01*
X148446631Y-59232093D01*
X148311839Y-59165915D01*
X147939036Y-58981677D01*
X148237628Y-58491231D01*
X148276719Y-58427041D01*
X148346950Y-58311810D01*
X148409811Y-58208794D01*
X148463004Y-58121748D01*
X148504233Y-58054432D01*
X148531200Y-58010601D01*
X148541607Y-57994015D01*
X148544502Y-57994510D01*
X148567820Y-58010742D01*
X148608786Y-58044429D01*
X148660927Y-58090345D01*
X148753787Y-58169678D01*
X148919562Y-58286990D01*
X149080403Y-58368771D01*
X149196631Y-58409611D01*
X149393222Y-58451348D01*
X149586378Y-58458746D01*
X149773299Y-58432309D01*
X149951183Y-58372540D01*
X150117230Y-58279943D01*
X150268637Y-58155022D01*
X150352886Y-58063014D01*
X150471574Y-57892831D01*
X150568964Y-57695342D01*
X150645519Y-57469536D01*
X150701707Y-57214401D01*
X150704256Y-57198562D01*
X150716033Y-57095903D01*
X150724800Y-56968351D01*
X150730486Y-56824622D01*
X150733021Y-56673431D01*
X150732333Y-56523493D01*
X150728352Y-56383524D01*
X150721006Y-56262241D01*
X150710225Y-56168357D01*
X150668900Y-55955692D01*
X150599365Y-55707270D01*
X150511915Y-55489781D01*
X150406665Y-55303393D01*
X150283732Y-55148273D01*
X150143235Y-55024590D01*
X149985288Y-54932512D01*
X149810010Y-54872209D01*
X149771121Y-54864724D01*
X149673666Y-54854951D01*
X149559773Y-54851761D01*
X149442204Y-54854979D01*
X149333717Y-54864429D01*
X149247072Y-54879936D01*
X149102732Y-54929313D01*
X148935228Y-55019456D01*
X148786080Y-55138084D01*
X148759756Y-55163073D01*
X148712057Y-55207285D01*
X148678345Y-55237042D01*
X148664649Y-55246941D01*
X148661277Y-55242207D01*
X148640523Y-55212313D01*
X148603028Y-55158033D01*
X148551270Y-55082962D01*
X148487728Y-54990694D01*
X148414877Y-54884823D01*
X148335197Y-54768944D01*
X148009286Y-54294817D01*
X148082092Y-54273004D01*
X148089690Y-54270532D01*
X148139145Y-54250898D01*
X148210447Y-54219239D01*
X148295228Y-54179362D01*
X148385120Y-54135076D01*
X148424292Y-54115496D01*
X148641804Y-54014409D01*
X148842283Y-53936238D01*
X149033438Y-53878985D01*
X149222981Y-53840649D01*
X149418622Y-53819231D01*
X149628072Y-53812731D01*
X149773834Y-53816031D01*
G36*
X149773834Y-53816031D02*
G01*
X150017638Y-53838413D01*
X150244132Y-53883551D01*
X150461742Y-53953345D01*
X150678891Y-54049696D01*
X150893845Y-54172715D01*
X151124534Y-54340422D01*
X151338459Y-54534323D01*
X151530911Y-54749618D01*
X151697180Y-54981507D01*
X151832553Y-55225190D01*
X151844841Y-55251258D01*
X151947750Y-55502881D01*
X152025946Y-55764345D01*
X152080439Y-56040646D01*
X152112241Y-56336779D01*
X152122360Y-56657739D01*
X152110056Y-56989528D01*
X152071001Y-57316276D01*
X152004590Y-57622149D01*
X151910227Y-57909317D01*
X151787320Y-58179949D01*
X151635273Y-58436214D01*
X151492450Y-58632000D01*
X151295243Y-58852289D01*
X151080296Y-59040974D01*
X150847703Y-59197993D01*
X150597558Y-59323285D01*
X150329957Y-59416786D01*
X150044992Y-59478437D01*
X150041740Y-59478917D01*
X149986862Y-59483732D01*
X149904049Y-59487304D01*
X149800958Y-59489465D01*
X149685246Y-59490050D01*
X149564572Y-59488891D01*
X149479997Y-59487192D01*
X149354512Y-59483258D01*
X149253958Y-59477626D01*
X149171083Y-59469694D01*
X149098634Y-59458863D01*
X149029357Y-59444530D01*
X148951416Y-59426007D01*
X148870099Y-59404914D01*
X148796556Y-59382787D01*
X148724112Y-59357033D01*
X148646093Y-59325060D01*
X148555825Y-59284278D01*
X148446631Y-59232093D01*
X148311839Y-59165915D01*
X147939036Y-58981677D01*
X148237628Y-58491231D01*
X148276719Y-58427041D01*
X148346950Y-58311810D01*
X148409811Y-58208794D01*
X148463004Y-58121748D01*
X148504233Y-58054432D01*
X148531200Y-58010601D01*
X148541607Y-57994015D01*
X148544502Y-57994510D01*
X148567820Y-58010742D01*
X148608786Y-58044429D01*
X148660927Y-58090345D01*
X148753787Y-58169678D01*
X148919562Y-58286990D01*
X149080403Y-58368771D01*
X149196631Y-58409611D01*
X149393222Y-58451348D01*
X149586378Y-58458746D01*
X149773299Y-58432309D01*
X149951183Y-58372540D01*
X150117230Y-58279943D01*
X150268637Y-58155022D01*
X150352886Y-58063014D01*
X150471574Y-57892831D01*
X150568964Y-57695342D01*
X150645519Y-57469536D01*
X150701707Y-57214401D01*
X150704256Y-57198562D01*
X150716033Y-57095903D01*
X150724800Y-56968351D01*
X150730486Y-56824622D01*
X150733021Y-56673431D01*
X150732333Y-56523493D01*
X150728352Y-56383524D01*
X150721006Y-56262241D01*
X150710225Y-56168357D01*
X150668900Y-55955692D01*
X150599365Y-55707270D01*
X150511915Y-55489781D01*
X150406665Y-55303393D01*
X150283732Y-55148273D01*
X150143235Y-55024590D01*
X149985288Y-54932512D01*
X149810010Y-54872209D01*
X149771121Y-54864724D01*
X149673666Y-54854951D01*
X149559773Y-54851761D01*
X149442204Y-54854979D01*
X149333717Y-54864429D01*
X149247072Y-54879936D01*
X149102732Y-54929313D01*
X148935228Y-55019456D01*
X148786080Y-55138084D01*
X148759756Y-55163073D01*
X148712057Y-55207285D01*
X148678345Y-55237042D01*
X148664649Y-55246941D01*
X148661277Y-55242207D01*
X148640523Y-55212313D01*
X148603028Y-55158033D01*
X148551270Y-55082962D01*
X148487728Y-54990694D01*
X148414877Y-54884823D01*
X148335197Y-54768944D01*
X148009286Y-54294817D01*
X148082092Y-54273004D01*
X148089690Y-54270532D01*
X148139145Y-54250898D01*
X148210447Y-54219239D01*
X148295228Y-54179362D01*
X148385120Y-54135076D01*
X148424292Y-54115496D01*
X148641804Y-54014409D01*
X148842283Y-53936238D01*
X149033438Y-53878985D01*
X149222981Y-53840649D01*
X149418622Y-53819231D01*
X149628072Y-53812731D01*
X149773834Y-53816031D01*
G37*
X143847105Y-57596537D02*
X143843255Y-57764433D01*
X143832247Y-57912502D01*
X143813229Y-58048798D01*
X143785349Y-58181375D01*
X143747754Y-58318286D01*
X143690743Y-58481936D01*
X143586036Y-58702857D01*
X143457598Y-58900734D01*
X143307393Y-59073697D01*
X143137387Y-59219876D01*
X142949545Y-59337401D01*
X142745832Y-59424402D01*
X142528212Y-59479009D01*
X142525593Y-59479447D01*
X142366553Y-59494750D01*
X142191809Y-59492707D01*
X142013820Y-59474579D01*
X141845046Y-59441624D01*
X141697948Y-59395101D01*
X141635161Y-59366791D01*
X141553387Y-59323761D01*
X141469359Y-59274546D01*
X141391845Y-59224563D01*
X141329612Y-59179229D01*
X141291429Y-59143960D01*
X141282663Y-59134277D01*
X141272214Y-59130892D01*
X141265229Y-59147696D01*
X141260082Y-59190045D01*
X141255143Y-59263295D01*
X141246072Y-59415929D01*
X139856360Y-59425433D01*
X139904439Y-59343393D01*
X139907305Y-59338543D01*
X139921285Y-59315772D01*
X139933969Y-59295487D01*
X139945423Y-59275925D01*
X139955715Y-59255324D01*
X139964915Y-59231920D01*
X139973090Y-59203953D01*
X139980309Y-59169660D01*
X139986640Y-59127278D01*
X139992151Y-59075046D01*
X139996910Y-59011200D01*
X140000985Y-58933979D01*
X140004446Y-58841620D01*
X140007359Y-58732361D01*
X140009794Y-58604440D01*
X140011818Y-58456094D01*
X140013501Y-58285562D01*
X140014909Y-58091081D01*
X140016112Y-57870888D01*
X140017177Y-57623221D01*
X140018173Y-57346318D01*
X140019168Y-57038417D01*
X140020231Y-56697756D01*
X140021167Y-56404584D01*
X141336786Y-56404584D01*
X141336786Y-58290556D01*
X141427500Y-58350057D01*
X141462386Y-58371491D01*
X141542265Y-58414311D01*
X141618000Y-58448410D01*
X141651168Y-58459955D01*
X141756705Y-58483004D01*
X141890143Y-58494773D01*
X141957996Y-58497222D01*
X142020980Y-58496666D01*
X142067866Y-58490375D01*
X142109920Y-58476626D01*
X142158409Y-58453692D01*
X142251595Y-58392259D01*
X142332324Y-58305358D01*
X142396945Y-58193369D01*
X142446073Y-58054539D01*
X142480321Y-57887111D01*
X142500306Y-57689329D01*
X142506641Y-57459440D01*
X142506333Y-57407175D01*
X142497225Y-57165015D01*
X142475109Y-56954302D01*
X142439447Y-56772814D01*
X142389701Y-56618327D01*
X142325333Y-56488619D01*
X142245805Y-56381466D01*
X142212812Y-56348763D01*
X142110560Y-56280632D01*
X141990526Y-56239173D01*
X141857910Y-56224622D01*
X141717913Y-56237214D01*
X141575733Y-56277185D01*
X141436572Y-56344771D01*
X141336786Y-56404584D01*
X140021167Y-56404584D01*
X140021429Y-56322572D01*
X140030500Y-53555786D01*
X140751679Y-53551042D01*
X140804124Y-53550723D01*
X140958429Y-53550089D01*
X141099564Y-53549961D01*
X141223677Y-53550311D01*
X141326915Y-53551112D01*
X141405426Y-53552340D01*
X141455357Y-53553967D01*
X141472857Y-53555967D01*
X141470618Y-53562305D01*
X141453917Y-53592356D01*
X141426255Y-53636057D01*
X141423495Y-53640235D01*
X141402048Y-53673977D01*
X141384065Y-53706806D01*
X141369242Y-53742105D01*
X141357274Y-53783255D01*
X141347856Y-53833638D01*
X141340683Y-53896634D01*
X141335450Y-53975627D01*
X141331852Y-54073997D01*
X141329584Y-54195126D01*
X141328342Y-54342396D01*
X141327821Y-54519188D01*
X141327714Y-54728884D01*
X141327905Y-54892603D01*
X141328487Y-55053339D01*
X141329419Y-55199083D01*
X141330659Y-55326286D01*
X141332164Y-55431400D01*
X141333893Y-55510875D01*
X141335802Y-55561163D01*
X141337850Y-55578714D01*
X141344455Y-55575990D01*
X141373490Y-55556807D01*
X141414957Y-55525303D01*
X141475072Y-55482936D01*
X141588021Y-55420511D01*
X141717116Y-55364828D01*
X141850309Y-55321525D01*
X141962215Y-55299444D01*
X142101587Y-55285368D01*
X142252426Y-55280492D01*
X142403093Y-55284820D01*
X142541946Y-55298359D01*
X142657345Y-55321115D01*
X142774847Y-55359447D01*
X142970869Y-55452371D01*
X143152371Y-55575908D01*
X143316004Y-55727212D01*
X143458419Y-55903440D01*
X143576270Y-56101746D01*
X143605528Y-56162556D01*
X143687518Y-56367670D01*
X143751619Y-56590285D01*
X143798642Y-56834325D01*
X143829395Y-57103713D01*
X143844690Y-57402374D01*
X143845400Y-57459440D01*
X143847105Y-57596537D01*
G36*
X143847105Y-57596537D02*
G01*
X143843255Y-57764433D01*
X143832247Y-57912502D01*
X143813229Y-58048798D01*
X143785349Y-58181375D01*
X143747754Y-58318286D01*
X143690743Y-58481936D01*
X143586036Y-58702857D01*
X143457598Y-58900734D01*
X143307393Y-59073697D01*
X143137387Y-59219876D01*
X142949545Y-59337401D01*
X142745832Y-59424402D01*
X142528212Y-59479009D01*
X142525593Y-59479447D01*
X142366553Y-59494750D01*
X142191809Y-59492707D01*
X142013820Y-59474579D01*
X141845046Y-59441624D01*
X141697948Y-59395101D01*
X141635161Y-59366791D01*
X141553387Y-59323761D01*
X141469359Y-59274546D01*
X141391845Y-59224563D01*
X141329612Y-59179229D01*
X141291429Y-59143960D01*
X141282663Y-59134277D01*
X141272214Y-59130892D01*
X141265229Y-59147696D01*
X141260082Y-59190045D01*
X141255143Y-59263295D01*
X141246072Y-59415929D01*
X139856360Y-59425433D01*
X139904439Y-59343393D01*
X139907305Y-59338543D01*
X139921285Y-59315772D01*
X139933969Y-59295487D01*
X139945423Y-59275925D01*
X139955715Y-59255324D01*
X139964915Y-59231920D01*
X139973090Y-59203953D01*
X139980309Y-59169660D01*
X139986640Y-59127278D01*
X139992151Y-59075046D01*
X139996910Y-59011200D01*
X140000985Y-58933979D01*
X140004446Y-58841620D01*
X140007359Y-58732361D01*
X140009794Y-58604440D01*
X140011818Y-58456094D01*
X140013501Y-58285562D01*
X140014909Y-58091081D01*
X140016112Y-57870888D01*
X140017177Y-57623221D01*
X140018173Y-57346318D01*
X140019168Y-57038417D01*
X140020231Y-56697756D01*
X140021167Y-56404584D01*
X141336786Y-56404584D01*
X141336786Y-58290556D01*
X141427500Y-58350057D01*
X141462386Y-58371491D01*
X141542265Y-58414311D01*
X141618000Y-58448410D01*
X141651168Y-58459955D01*
X141756705Y-58483004D01*
X141890143Y-58494773D01*
X141957996Y-58497222D01*
X142020980Y-58496666D01*
X142067866Y-58490375D01*
X142109920Y-58476626D01*
X142158409Y-58453692D01*
X142251595Y-58392259D01*
X142332324Y-58305358D01*
X142396945Y-58193369D01*
X142446073Y-58054539D01*
X142480321Y-57887111D01*
X142500306Y-57689329D01*
X142506641Y-57459440D01*
X142506333Y-57407175D01*
X142497225Y-57165015D01*
X142475109Y-56954302D01*
X142439447Y-56772814D01*
X142389701Y-56618327D01*
X142325333Y-56488619D01*
X142245805Y-56381466D01*
X142212812Y-56348763D01*
X142110560Y-56280632D01*
X141990526Y-56239173D01*
X141857910Y-56224622D01*
X141717913Y-56237214D01*
X141575733Y-56277185D01*
X141436572Y-56344771D01*
X141336786Y-56404584D01*
X140021167Y-56404584D01*
X140021429Y-56322572D01*
X140030500Y-53555786D01*
X140751679Y-53551042D01*
X140804124Y-53550723D01*
X140958429Y-53550089D01*
X141099564Y-53549961D01*
X141223677Y-53550311D01*
X141326915Y-53551112D01*
X141405426Y-53552340D01*
X141455357Y-53553967D01*
X141472857Y-53555967D01*
X141470618Y-53562305D01*
X141453917Y-53592356D01*
X141426255Y-53636057D01*
X141423495Y-53640235D01*
X141402048Y-53673977D01*
X141384065Y-53706806D01*
X141369242Y-53742105D01*
X141357274Y-53783255D01*
X141347856Y-53833638D01*
X141340683Y-53896634D01*
X141335450Y-53975627D01*
X141331852Y-54073997D01*
X141329584Y-54195126D01*
X141328342Y-54342396D01*
X141327821Y-54519188D01*
X141327714Y-54728884D01*
X141327905Y-54892603D01*
X141328487Y-55053339D01*
X141329419Y-55199083D01*
X141330659Y-55326286D01*
X141332164Y-55431400D01*
X141333893Y-55510875D01*
X141335802Y-55561163D01*
X141337850Y-55578714D01*
X141344455Y-55575990D01*
X141373490Y-55556807D01*
X141414957Y-55525303D01*
X141475072Y-55482936D01*
X141588021Y-55420511D01*
X141717116Y-55364828D01*
X141850309Y-55321525D01*
X141962215Y-55299444D01*
X142101587Y-55285368D01*
X142252426Y-55280492D01*
X142403093Y-55284820D01*
X142541946Y-55298359D01*
X142657345Y-55321115D01*
X142774847Y-55359447D01*
X142970869Y-55452371D01*
X143152371Y-55575908D01*
X143316004Y-55727212D01*
X143458419Y-55903440D01*
X143576270Y-56101746D01*
X143605528Y-56162556D01*
X143687518Y-56367670D01*
X143751619Y-56590285D01*
X143798642Y-56834325D01*
X143829395Y-57103713D01*
X143844690Y-57402374D01*
X143845400Y-57459440D01*
X143847105Y-57596537D01*
G37*
X147947990Y-58167437D02*
X147939842Y-58313722D01*
X147922232Y-58449833D01*
X147895659Y-58563214D01*
X147853259Y-58679867D01*
X147754976Y-58872110D01*
X147629350Y-59041247D01*
X147477681Y-59186126D01*
X147301271Y-59305594D01*
X147101420Y-59398499D01*
X146879429Y-59463689D01*
X146788907Y-59478392D01*
X146659552Y-59488611D01*
X146518675Y-59490909D01*
X146378050Y-59485472D01*
X146249449Y-59472485D01*
X146144643Y-59452133D01*
X146091979Y-59436109D01*
X145972369Y-59389219D01*
X145850783Y-59329688D01*
X145739765Y-59263971D01*
X145651859Y-59198524D01*
X145650778Y-59197579D01*
X145602607Y-59156736D01*
X145565545Y-59127653D01*
X145547537Y-59116572D01*
X145545568Y-59119217D01*
X145541113Y-59147794D01*
X145538018Y-59201094D01*
X145536857Y-59270786D01*
X145536857Y-59425000D01*
X144856500Y-59425000D01*
X144838389Y-59424997D01*
X144686490Y-59424731D01*
X144547078Y-59424070D01*
X144424118Y-59423062D01*
X144321579Y-59421758D01*
X144243426Y-59420205D01*
X144193625Y-59418454D01*
X144176143Y-59416553D01*
X144176550Y-59414893D01*
X144187988Y-59390377D01*
X144211962Y-59344317D01*
X144244179Y-59285018D01*
X144312215Y-59161929D01*
X144322190Y-57946689D01*
X145609429Y-57946689D01*
X145609935Y-58042703D01*
X145612387Y-58143587D01*
X145617190Y-58216507D01*
X145624695Y-58266212D01*
X145635250Y-58297449D01*
X145648828Y-58319755D01*
X145699962Y-58380561D01*
X145768475Y-58443863D01*
X145843568Y-58500265D01*
X145914440Y-58540370D01*
X145953761Y-58555085D01*
X146044302Y-58574677D01*
X146162555Y-58584694D01*
X146287232Y-58583177D01*
X146405627Y-58562574D01*
X146504449Y-58520011D01*
X146589948Y-58453571D01*
X146614000Y-58428995D01*
X146676622Y-58345185D01*
X146710504Y-58254850D01*
X146720679Y-58146151D01*
X146717922Y-58088725D01*
X146690661Y-57970507D01*
X146633390Y-57869039D01*
X146545068Y-57783179D01*
X146424651Y-57711784D01*
X146271097Y-57653714D01*
X146209193Y-57638475D01*
X146134251Y-57628041D01*
X146039937Y-57622246D01*
X145917857Y-57620298D01*
X145898026Y-57620299D01*
X145806696Y-57621414D01*
X145728244Y-57624108D01*
X145670471Y-57628029D01*
X145641179Y-57632824D01*
X145637808Y-57634380D01*
X145626910Y-57644154D01*
X145619192Y-57663794D01*
X145614119Y-57698585D01*
X145611157Y-57753809D01*
X145609772Y-57834750D01*
X145609429Y-57946689D01*
X144322190Y-57946689D01*
X144322714Y-57882857D01*
X144324275Y-57696561D01*
X144326458Y-57458965D01*
X144328750Y-57252698D01*
X144331335Y-57074842D01*
X144334400Y-56922481D01*
X144338128Y-56792696D01*
X144342705Y-56682572D01*
X144348316Y-56589190D01*
X144355147Y-56509635D01*
X144363383Y-56440988D01*
X144373208Y-56380333D01*
X144384808Y-56324752D01*
X144398368Y-56271329D01*
X144414073Y-56217146D01*
X144432109Y-56159286D01*
X144503161Y-55977898D01*
X144600464Y-55810258D01*
X144721641Y-55666732D01*
X144867803Y-55546570D01*
X145040057Y-55449020D01*
X145239515Y-55373331D01*
X145467285Y-55318753D01*
X145724477Y-55284535D01*
X145814368Y-55277730D01*
X145965760Y-55272755D01*
X146115814Y-55277235D01*
X146271554Y-55291927D01*
X146440005Y-55317584D01*
X146628193Y-55354962D01*
X146843143Y-55404818D01*
X146892828Y-55416881D01*
X147017601Y-55446565D01*
X147135861Y-55473898D01*
X147240436Y-55497263D01*
X147324154Y-55515047D01*
X147379845Y-55525636D01*
X147508333Y-55546740D01*
X147327695Y-55984549D01*
X147282512Y-56093859D01*
X147238061Y-56200969D01*
X147199923Y-56292418D01*
X147169969Y-56363733D01*
X147150071Y-56410437D01*
X147142103Y-56428058D01*
X147140850Y-56428310D01*
X147117758Y-56420443D01*
X147072353Y-56400283D01*
X147012824Y-56371417D01*
X146889096Y-56315203D01*
X146718837Y-56253740D01*
X146544578Y-56206670D01*
X146373133Y-56175177D01*
X146211317Y-56160443D01*
X146065944Y-56163650D01*
X145943829Y-56185979D01*
X145858601Y-56221409D01*
X145761809Y-56294017D01*
X145687297Y-56392518D01*
X145637199Y-56513883D01*
X145613649Y-56655080D01*
X145605355Y-56785215D01*
X146038285Y-56786400D01*
X146184285Y-56787624D01*
X146345771Y-56791972D01*
X146483725Y-56800178D01*
X146605281Y-56813039D01*
X146717577Y-56831354D01*
X146827747Y-56855919D01*
X146942929Y-56887533D01*
X147115268Y-56947709D01*
X147317975Y-57046806D01*
X147495876Y-57168190D01*
X147647217Y-57310155D01*
X147770243Y-57470993D01*
X147863199Y-57648997D01*
X147924330Y-57842460D01*
X147933904Y-57894565D01*
X147946177Y-58023533D01*
X147947722Y-58146151D01*
X147947990Y-58167437D01*
G36*
X147947990Y-58167437D02*
G01*
X147939842Y-58313722D01*
X147922232Y-58449833D01*
X147895659Y-58563214D01*
X147853259Y-58679867D01*
X147754976Y-58872110D01*
X147629350Y-59041247D01*
X147477681Y-59186126D01*
X147301271Y-59305594D01*
X147101420Y-59398499D01*
X146879429Y-59463689D01*
X146788907Y-59478392D01*
X146659552Y-59488611D01*
X146518675Y-59490909D01*
X146378050Y-59485472D01*
X146249449Y-59472485D01*
X146144643Y-59452133D01*
X146091979Y-59436109D01*
X145972369Y-59389219D01*
X145850783Y-59329688D01*
X145739765Y-59263971D01*
X145651859Y-59198524D01*
X145650778Y-59197579D01*
X145602607Y-59156736D01*
X145565545Y-59127653D01*
X145547537Y-59116572D01*
X145545568Y-59119217D01*
X145541113Y-59147794D01*
X145538018Y-59201094D01*
X145536857Y-59270786D01*
X145536857Y-59425000D01*
X144856500Y-59425000D01*
X144838389Y-59424997D01*
X144686490Y-59424731D01*
X144547078Y-59424070D01*
X144424118Y-59423062D01*
X144321579Y-59421758D01*
X144243426Y-59420205D01*
X144193625Y-59418454D01*
X144176143Y-59416553D01*
X144176550Y-59414893D01*
X144187988Y-59390377D01*
X144211962Y-59344317D01*
X144244179Y-59285018D01*
X144312215Y-59161929D01*
X144322190Y-57946689D01*
X145609429Y-57946689D01*
X145609935Y-58042703D01*
X145612387Y-58143587D01*
X145617190Y-58216507D01*
X145624695Y-58266212D01*
X145635250Y-58297449D01*
X145648828Y-58319755D01*
X145699962Y-58380561D01*
X145768475Y-58443863D01*
X145843568Y-58500265D01*
X145914440Y-58540370D01*
X145953761Y-58555085D01*
X146044302Y-58574677D01*
X146162555Y-58584694D01*
X146287232Y-58583177D01*
X146405627Y-58562574D01*
X146504449Y-58520011D01*
X146589948Y-58453571D01*
X146614000Y-58428995D01*
X146676622Y-58345185D01*
X146710504Y-58254850D01*
X146720679Y-58146151D01*
X146717922Y-58088725D01*
X146690661Y-57970507D01*
X146633390Y-57869039D01*
X146545068Y-57783179D01*
X146424651Y-57711784D01*
X146271097Y-57653714D01*
X146209193Y-57638475D01*
X146134251Y-57628041D01*
X146039937Y-57622246D01*
X145917857Y-57620298D01*
X145898026Y-57620299D01*
X145806696Y-57621414D01*
X145728244Y-57624108D01*
X145670471Y-57628029D01*
X145641179Y-57632824D01*
X145637808Y-57634380D01*
X145626910Y-57644154D01*
X145619192Y-57663794D01*
X145614119Y-57698585D01*
X145611157Y-57753809D01*
X145609772Y-57834750D01*
X145609429Y-57946689D01*
X144322190Y-57946689D01*
X144322714Y-57882857D01*
X144324275Y-57696561D01*
X144326458Y-57458965D01*
X144328750Y-57252698D01*
X144331335Y-57074842D01*
X144334400Y-56922481D01*
X144338128Y-56792696D01*
X144342705Y-56682572D01*
X144348316Y-56589190D01*
X144355147Y-56509635D01*
X144363383Y-56440988D01*
X144373208Y-56380333D01*
X144384808Y-56324752D01*
X144398368Y-56271329D01*
X144414073Y-56217146D01*
X144432109Y-56159286D01*
X144503161Y-55977898D01*
X144600464Y-55810258D01*
X144721641Y-55666732D01*
X144867803Y-55546570D01*
X145040057Y-55449020D01*
X145239515Y-55373331D01*
X145467285Y-55318753D01*
X145724477Y-55284535D01*
X145814368Y-55277730D01*
X145965760Y-55272755D01*
X146115814Y-55277235D01*
X146271554Y-55291927D01*
X146440005Y-55317584D01*
X146628193Y-55354962D01*
X146843143Y-55404818D01*
X146892828Y-55416881D01*
X147017601Y-55446565D01*
X147135861Y-55473898D01*
X147240436Y-55497263D01*
X147324154Y-55515047D01*
X147379845Y-55525636D01*
X147508333Y-55546740D01*
X147327695Y-55984549D01*
X147282512Y-56093859D01*
X147238061Y-56200969D01*
X147199923Y-56292418D01*
X147169969Y-56363733D01*
X147150071Y-56410437D01*
X147142103Y-56428058D01*
X147140850Y-56428310D01*
X147117758Y-56420443D01*
X147072353Y-56400283D01*
X147012824Y-56371417D01*
X146889096Y-56315203D01*
X146718837Y-56253740D01*
X146544578Y-56206670D01*
X146373133Y-56175177D01*
X146211317Y-56160443D01*
X146065944Y-56163650D01*
X145943829Y-56185979D01*
X145858601Y-56221409D01*
X145761809Y-56294017D01*
X145687297Y-56392518D01*
X145637199Y-56513883D01*
X145613649Y-56655080D01*
X145605355Y-56785215D01*
X146038285Y-56786400D01*
X146184285Y-56787624D01*
X146345771Y-56791972D01*
X146483725Y-56800178D01*
X146605281Y-56813039D01*
X146717577Y-56831354D01*
X146827747Y-56855919D01*
X146942929Y-56887533D01*
X147115268Y-56947709D01*
X147317975Y-57046806D01*
X147495876Y-57168190D01*
X147647217Y-57310155D01*
X147770243Y-57470993D01*
X147863199Y-57648997D01*
X147924330Y-57842460D01*
X147933904Y-57894565D01*
X147946177Y-58023533D01*
X147947722Y-58146151D01*
X147947990Y-58167437D01*
G37*
X160119428Y-59460860D02*
X160117560Y-59601553D01*
X160115241Y-59722746D01*
X160112425Y-59825940D01*
X160109064Y-59912635D01*
X160105110Y-59984332D01*
X160100517Y-60042530D01*
X160095238Y-60088730D01*
X160089225Y-60124433D01*
X160082430Y-60151137D01*
X160074808Y-60170345D01*
X160066309Y-60183555D01*
X160056889Y-60192268D01*
X160046498Y-60197985D01*
X160035090Y-60202206D01*
X160022618Y-60206430D01*
X160009034Y-60212159D01*
X160001391Y-60215030D01*
X159987371Y-60218165D01*
X159966538Y-60221037D01*
X159937421Y-60223659D01*
X159898544Y-60226040D01*
X159848434Y-60228194D01*
X159785617Y-60230130D01*
X159708620Y-60231862D01*
X159615969Y-60233400D01*
X159506190Y-60234756D01*
X159377810Y-60235941D01*
X159229354Y-60236968D01*
X159059350Y-60237846D01*
X158866323Y-60238589D01*
X158648800Y-60239207D01*
X158405308Y-60239713D01*
X158134371Y-60240116D01*
X157834517Y-60240430D01*
X157504273Y-60240665D01*
X157142164Y-60240834D01*
X156746716Y-60240947D01*
X156316456Y-60241016D01*
X156180108Y-60241029D01*
X155759186Y-60241038D01*
X155372647Y-60240985D01*
X155019034Y-60240860D01*
X154696890Y-60240652D01*
X154404761Y-60240351D01*
X154141188Y-60239946D01*
X153904716Y-60239426D01*
X153693890Y-60238782D01*
X153507251Y-60238002D01*
X153343345Y-60237076D01*
X153200715Y-60235993D01*
X153077905Y-60234743D01*
X152973458Y-60233315D01*
X152885919Y-60231698D01*
X152813830Y-60229883D01*
X152755736Y-60227858D01*
X152710180Y-60225613D01*
X152675707Y-60223137D01*
X152650859Y-60220420D01*
X152634181Y-60217451D01*
X152624217Y-60214220D01*
X152621046Y-60212782D01*
X152608067Y-60208058D01*
X152596165Y-60204608D01*
X152585292Y-60200930D01*
X152575398Y-60195521D01*
X152566437Y-60186879D01*
X152558359Y-60173502D01*
X152551116Y-60153886D01*
X152544661Y-60126531D01*
X152538945Y-60089933D01*
X152533919Y-60042590D01*
X152529536Y-59983000D01*
X152525747Y-59909659D01*
X152522504Y-59821067D01*
X152519759Y-59715720D01*
X152517463Y-59592117D01*
X152515568Y-59448754D01*
X152514946Y-59382367D01*
X152993373Y-59382367D01*
X152993898Y-59388725D01*
X153003521Y-59393877D01*
X153025264Y-59397950D01*
X153062148Y-59401070D01*
X153117193Y-59403365D01*
X153193419Y-59404959D01*
X153293848Y-59405979D01*
X153421501Y-59406551D01*
X153579398Y-59406802D01*
X153770559Y-59406857D01*
X154571314Y-59406857D01*
X154503621Y-59284393D01*
X154435929Y-59161929D01*
X154435929Y-55605929D01*
X154503621Y-55483465D01*
X154571314Y-55361000D01*
X153139993Y-55361000D01*
X153134818Y-57243322D01*
X153129643Y-59125643D01*
X153078903Y-59234008D01*
X153052151Y-59287719D01*
X153021860Y-59341524D01*
X152998984Y-59374615D01*
X152998926Y-59374679D01*
X152993373Y-59382367D01*
X152514946Y-59382367D01*
X152514026Y-59284129D01*
X152512789Y-59096740D01*
X152511808Y-58885085D01*
X152511035Y-58647661D01*
X152510422Y-58382966D01*
X152509921Y-58089498D01*
X152509484Y-57765753D01*
X152509061Y-57410230D01*
X152508605Y-57021426D01*
X152508068Y-56597840D01*
X152507999Y-56546560D01*
X152507400Y-56125657D01*
X152506827Y-55739362D01*
X152506323Y-55386172D01*
X152505930Y-55064584D01*
X152505690Y-54773094D01*
X152505646Y-54510200D01*
X152505840Y-54274398D01*
X152506314Y-54064186D01*
X152507112Y-53878060D01*
X152508274Y-53714517D01*
X152509844Y-53572055D01*
X152511864Y-53449170D01*
X152514377Y-53344359D01*
X152517424Y-53256119D01*
X152521049Y-53182947D01*
X152525293Y-53123340D01*
X152530198Y-53075795D01*
X152535808Y-53038808D01*
X152542165Y-53010878D01*
X152549311Y-52990500D01*
X152557288Y-52976171D01*
X152566139Y-52966390D01*
X152575906Y-52959651D01*
X152586632Y-52954454D01*
X152598358Y-52949293D01*
X152611128Y-52942667D01*
X152614865Y-52940556D01*
X152671405Y-52920118D01*
X152733300Y-52911717D01*
X152803072Y-52911720D01*
X152804234Y-53070467D01*
X152804529Y-53088735D01*
X152826706Y-53274427D01*
X152883188Y-53449147D01*
X152973192Y-53611043D01*
X153095932Y-53758265D01*
X153161798Y-53818311D01*
X153308454Y-53917838D01*
X153468470Y-53987242D01*
X153637185Y-54026487D01*
X153809939Y-54035537D01*
X153982072Y-54014353D01*
X154148922Y-53962899D01*
X154286080Y-53891429D01*
X154893127Y-53891429D01*
X154972957Y-53948862D01*
X155040470Y-54002841D01*
X155135603Y-54090886D01*
X155243507Y-54201230D01*
X155360097Y-54329670D01*
X155481285Y-54472000D01*
X155512494Y-54510062D01*
X155565629Y-54575343D01*
X155635083Y-54660988D01*
X155718556Y-54764140D01*
X155813746Y-54881939D01*
X155918354Y-55011528D01*
X156030077Y-55150047D01*
X156146615Y-55294639D01*
X156200067Y-55361000D01*
X156265667Y-55442444D01*
X156384932Y-55590603D01*
X156502109Y-55736260D01*
X156614896Y-55876554D01*
X156720994Y-56008627D01*
X156818101Y-56129621D01*
X156903916Y-56236678D01*
X156976138Y-56326938D01*
X157032466Y-56397543D01*
X157070599Y-56445635D01*
X157088237Y-56468355D01*
X157089692Y-56476893D01*
X157084850Y-56493132D01*
X157072302Y-56518679D01*
X157050797Y-56555347D01*
X157019080Y-56604949D01*
X156975900Y-56669295D01*
X156920005Y-56750198D01*
X156850141Y-56849471D01*
X156765057Y-56968926D01*
X156663499Y-57110374D01*
X156544216Y-57275629D01*
X156405954Y-57466501D01*
X156247462Y-57684804D01*
X156121177Y-57858571D01*
X155967105Y-58070407D01*
X155831580Y-58256440D01*
X155713024Y-58418734D01*
X155609861Y-58559354D01*
X155520515Y-58680365D01*
X155443411Y-58783832D01*
X155376972Y-58871818D01*
X155319623Y-58946390D01*
X155269786Y-59009610D01*
X155225886Y-59063545D01*
X155186347Y-59110258D01*
X155149593Y-59151814D01*
X155114047Y-59190279D01*
X155078135Y-59227715D01*
X155040278Y-59266189D01*
X154900771Y-59406857D01*
X156776357Y-59406933D01*
X156770464Y-59293275D01*
X156770179Y-59287564D01*
X156769060Y-59242127D01*
X156771181Y-59198593D01*
X156777958Y-59154576D01*
X156790812Y-59107693D01*
X156811160Y-59055558D01*
X156840420Y-58995786D01*
X156880012Y-58925994D01*
X156931353Y-58843797D01*
X156995862Y-58746809D01*
X157074957Y-58632647D01*
X157170057Y-58498925D01*
X157282581Y-58343260D01*
X157413946Y-58163265D01*
X157565572Y-57956557D01*
X158100786Y-57227911D01*
X158105501Y-58072755D01*
X158105919Y-58151562D01*
X158106656Y-58363832D01*
X158106321Y-58544381D01*
X158104519Y-58696628D01*
X158100856Y-58823988D01*
X158094936Y-58929878D01*
X158086367Y-59017715D01*
X158074751Y-59090916D01*
X158059697Y-59152898D01*
X158040807Y-59207076D01*
X158017689Y-59256869D01*
X157989947Y-59305693D01*
X157957187Y-59356964D01*
X157924256Y-59406857D01*
X159635704Y-59406857D01*
X159591496Y-59347893D01*
X159584572Y-59338565D01*
X159529221Y-59253070D01*
X159491064Y-59166644D01*
X159466008Y-59067613D01*
X159449959Y-58944304D01*
X159449518Y-58938929D01*
X159447189Y-58888067D01*
X159445087Y-58803206D01*
X159443219Y-58686286D01*
X159441596Y-58539246D01*
X159440227Y-58364026D01*
X159439120Y-58162563D01*
X159438285Y-57936798D01*
X159437732Y-57688669D01*
X159437468Y-57420115D01*
X159437503Y-57133077D01*
X159437847Y-56829492D01*
X159438508Y-56511300D01*
X159439209Y-56225881D01*
X159439958Y-55915196D01*
X159440696Y-55637226D01*
X159441515Y-55390022D01*
X159442507Y-55171637D01*
X159443766Y-54980125D01*
X159445383Y-54813537D01*
X159447452Y-54669925D01*
X159450065Y-54547344D01*
X159453315Y-54443844D01*
X159457293Y-54357479D01*
X159462094Y-54286301D01*
X159467809Y-54228363D01*
X159474532Y-54181717D01*
X159482354Y-54144416D01*
X159491368Y-54114512D01*
X159501667Y-54090058D01*
X159513344Y-54069106D01*
X159526492Y-54049709D01*
X159541202Y-54029920D01*
X159557567Y-54007791D01*
X159573396Y-53985615D01*
X159603991Y-53941769D01*
X159622317Y-53914107D01*
X159622759Y-53912949D01*
X159616360Y-53907718D01*
X159593779Y-53903353D01*
X159552502Y-53899788D01*
X159490017Y-53896954D01*
X159403812Y-53894787D01*
X159291373Y-53893217D01*
X159150188Y-53892179D01*
X158977745Y-53891605D01*
X158771530Y-53891429D01*
X157907060Y-53891429D01*
X157952621Y-53945574D01*
X157979026Y-53982763D01*
X158022978Y-54070446D01*
X158061495Y-54179499D01*
X158090893Y-54300468D01*
X158092766Y-54311952D01*
X158098341Y-54372492D01*
X158102563Y-54466056D01*
X158105443Y-54593292D01*
X158106992Y-54754846D01*
X158107221Y-54951368D01*
X158106143Y-55183504D01*
X158100786Y-55958508D01*
X157547429Y-55258742D01*
X157531579Y-55238698D01*
X157391253Y-55061052D01*
X157271453Y-54908914D01*
X157170270Y-54779698D01*
X157085800Y-54670817D01*
X157016135Y-54579685D01*
X156959368Y-54503714D01*
X156913594Y-54440317D01*
X156876906Y-54386908D01*
X156847396Y-54340901D01*
X156823159Y-54299707D01*
X156802288Y-54260741D01*
X156782877Y-54221415D01*
X156753015Y-54151805D01*
X156733724Y-54078372D01*
X156728592Y-53999165D01*
X156729108Y-53891429D01*
X154893127Y-53891429D01*
X154286080Y-53891429D01*
X154305830Y-53881138D01*
X154448136Y-53769032D01*
X154487695Y-53729510D01*
X154604620Y-53583175D01*
X154687588Y-53424367D01*
X154737043Y-53252063D01*
X154753429Y-53065238D01*
X154753429Y-52911715D01*
X157357830Y-52911714D01*
X157520540Y-52911707D01*
X157870089Y-52911660D01*
X158185856Y-52911626D01*
X158469588Y-52911673D01*
X158723031Y-52911872D01*
X158947931Y-52912291D01*
X159146034Y-52912998D01*
X159319087Y-52914065D01*
X159468835Y-52915558D01*
X159597025Y-52917547D01*
X159705403Y-52920102D01*
X159795715Y-52923291D01*
X159869707Y-52927183D01*
X159929125Y-52931848D01*
X159975716Y-52937354D01*
X160011226Y-52943771D01*
X160037400Y-52951167D01*
X160055986Y-52959611D01*
X160068728Y-52969173D01*
X160077374Y-52979922D01*
X160083670Y-52991926D01*
X160089360Y-53005255D01*
X160096193Y-53019978D01*
X160096316Y-53020218D01*
X160099633Y-53029856D01*
X160102676Y-53045993D01*
X160105456Y-53070121D01*
X160107985Y-53103727D01*
X160110274Y-53148301D01*
X160112334Y-53205333D01*
X160114179Y-53276311D01*
X160115817Y-53362725D01*
X160117263Y-53466064D01*
X160118526Y-53587818D01*
X160119619Y-53729475D01*
X160120553Y-53892526D01*
X160121340Y-54078458D01*
X160121991Y-54288762D01*
X160122517Y-54524927D01*
X160122931Y-54788442D01*
X160123244Y-55080797D01*
X160123467Y-55403480D01*
X160123612Y-55757981D01*
X160123691Y-56145789D01*
X160123714Y-56568393D01*
X160123715Y-56651414D01*
X160123755Y-57069614D01*
X160123817Y-57453313D01*
X160123854Y-57804009D01*
X160123817Y-58123204D01*
X160123662Y-58412398D01*
X160123339Y-58673091D01*
X160122801Y-58906784D01*
X160122001Y-59114976D01*
X160120892Y-59299168D01*
X160119916Y-59406857D01*
X160119428Y-59460860D01*
G36*
X160119428Y-59460860D02*
G01*
X160117560Y-59601553D01*
X160115241Y-59722746D01*
X160112425Y-59825940D01*
X160109064Y-59912635D01*
X160105110Y-59984332D01*
X160100517Y-60042530D01*
X160095238Y-60088730D01*
X160089225Y-60124433D01*
X160082430Y-60151137D01*
X160074808Y-60170345D01*
X160066309Y-60183555D01*
X160056889Y-60192268D01*
X160046498Y-60197985D01*
X160035090Y-60202206D01*
X160022618Y-60206430D01*
X160009034Y-60212159D01*
X160001391Y-60215030D01*
X159987371Y-60218165D01*
X159966538Y-60221037D01*
X159937421Y-60223659D01*
X159898544Y-60226040D01*
X159848434Y-60228194D01*
X159785617Y-60230130D01*
X159708620Y-60231862D01*
X159615969Y-60233400D01*
X159506190Y-60234756D01*
X159377810Y-60235941D01*
X159229354Y-60236968D01*
X159059350Y-60237846D01*
X158866323Y-60238589D01*
X158648800Y-60239207D01*
X158405308Y-60239713D01*
X158134371Y-60240116D01*
X157834517Y-60240430D01*
X157504273Y-60240665D01*
X157142164Y-60240834D01*
X156746716Y-60240947D01*
X156316456Y-60241016D01*
X156180108Y-60241029D01*
X155759186Y-60241038D01*
X155372647Y-60240985D01*
X155019034Y-60240860D01*
X154696890Y-60240652D01*
X154404761Y-60240351D01*
X154141188Y-60239946D01*
X153904716Y-60239426D01*
X153693890Y-60238782D01*
X153507251Y-60238002D01*
X153343345Y-60237076D01*
X153200715Y-60235993D01*
X153077905Y-60234743D01*
X152973458Y-60233315D01*
X152885919Y-60231698D01*
X152813830Y-60229883D01*
X152755736Y-60227858D01*
X152710180Y-60225613D01*
X152675707Y-60223137D01*
X152650859Y-60220420D01*
X152634181Y-60217451D01*
X152624217Y-60214220D01*
X152621046Y-60212782D01*
X152608067Y-60208058D01*
X152596165Y-60204608D01*
X152585292Y-60200930D01*
X152575398Y-60195521D01*
X152566437Y-60186879D01*
X152558359Y-60173502D01*
X152551116Y-60153886D01*
X152544661Y-60126531D01*
X152538945Y-60089933D01*
X152533919Y-60042590D01*
X152529536Y-59983000D01*
X152525747Y-59909659D01*
X152522504Y-59821067D01*
X152519759Y-59715720D01*
X152517463Y-59592117D01*
X152515568Y-59448754D01*
X152514946Y-59382367D01*
X152993373Y-59382367D01*
X152993898Y-59388725D01*
X153003521Y-59393877D01*
X153025264Y-59397950D01*
X153062148Y-59401070D01*
X153117193Y-59403365D01*
X153193419Y-59404959D01*
X153293848Y-59405979D01*
X153421501Y-59406551D01*
X153579398Y-59406802D01*
X153770559Y-59406857D01*
X154571314Y-59406857D01*
X154503621Y-59284393D01*
X154435929Y-59161929D01*
X154435929Y-55605929D01*
X154503621Y-55483465D01*
X154571314Y-55361000D01*
X153139993Y-55361000D01*
X153134818Y-57243322D01*
X153129643Y-59125643D01*
X153078903Y-59234008D01*
X153052151Y-59287719D01*
X153021860Y-59341524D01*
X152998984Y-59374615D01*
X152998926Y-59374679D01*
X152993373Y-59382367D01*
X152514946Y-59382367D01*
X152514026Y-59284129D01*
X152512789Y-59096740D01*
X152511808Y-58885085D01*
X152511035Y-58647661D01*
X152510422Y-58382966D01*
X152509921Y-58089498D01*
X152509484Y-57765753D01*
X152509061Y-57410230D01*
X152508605Y-57021426D01*
X152508068Y-56597840D01*
X152507999Y-56546560D01*
X152507400Y-56125657D01*
X152506827Y-55739362D01*
X152506323Y-55386172D01*
X152505930Y-55064584D01*
X152505690Y-54773094D01*
X152505646Y-54510200D01*
X152505840Y-54274398D01*
X152506314Y-54064186D01*
X152507112Y-53878060D01*
X152508274Y-53714517D01*
X152509844Y-53572055D01*
X152511864Y-53449170D01*
X152514377Y-53344359D01*
X152517424Y-53256119D01*
X152521049Y-53182947D01*
X152525293Y-53123340D01*
X152530198Y-53075795D01*
X152535808Y-53038808D01*
X152542165Y-53010878D01*
X152549311Y-52990500D01*
X152557288Y-52976171D01*
X152566139Y-52966390D01*
X152575906Y-52959651D01*
X152586632Y-52954454D01*
X152598358Y-52949293D01*
X152611128Y-52942667D01*
X152614865Y-52940556D01*
X152671405Y-52920118D01*
X152733300Y-52911717D01*
X152803072Y-52911720D01*
X152804234Y-53070467D01*
X152804529Y-53088735D01*
X152826706Y-53274427D01*
X152883188Y-53449147D01*
X152973192Y-53611043D01*
X153095932Y-53758265D01*
X153161798Y-53818311D01*
X153308454Y-53917838D01*
X153468470Y-53987242D01*
X153637185Y-54026487D01*
X153809939Y-54035537D01*
X153982072Y-54014353D01*
X154148922Y-53962899D01*
X154286080Y-53891429D01*
X154893127Y-53891429D01*
X154972957Y-53948862D01*
X155040470Y-54002841D01*
X155135603Y-54090886D01*
X155243507Y-54201230D01*
X155360097Y-54329670D01*
X155481285Y-54472000D01*
X155512494Y-54510062D01*
X155565629Y-54575343D01*
X155635083Y-54660988D01*
X155718556Y-54764140D01*
X155813746Y-54881939D01*
X155918354Y-55011528D01*
X156030077Y-55150047D01*
X156146615Y-55294639D01*
X156200067Y-55361000D01*
X156265667Y-55442444D01*
X156384932Y-55590603D01*
X156502109Y-55736260D01*
X156614896Y-55876554D01*
X156720994Y-56008627D01*
X156818101Y-56129621D01*
X156903916Y-56236678D01*
X156976138Y-56326938D01*
X157032466Y-56397543D01*
X157070599Y-56445635D01*
X157088237Y-56468355D01*
X157089692Y-56476893D01*
X157084850Y-56493132D01*
X157072302Y-56518679D01*
X157050797Y-56555347D01*
X157019080Y-56604949D01*
X156975900Y-56669295D01*
X156920005Y-56750198D01*
X156850141Y-56849471D01*
X156765057Y-56968926D01*
X156663499Y-57110374D01*
X156544216Y-57275629D01*
X156405954Y-57466501D01*
X156247462Y-57684804D01*
X156121177Y-57858571D01*
X155967105Y-58070407D01*
X155831580Y-58256440D01*
X155713024Y-58418734D01*
X155609861Y-58559354D01*
X155520515Y-58680365D01*
X155443411Y-58783832D01*
X155376972Y-58871818D01*
X155319623Y-58946390D01*
X155269786Y-59009610D01*
X155225886Y-59063545D01*
X155186347Y-59110258D01*
X155149593Y-59151814D01*
X155114047Y-59190279D01*
X155078135Y-59227715D01*
X155040278Y-59266189D01*
X154900771Y-59406857D01*
X156776357Y-59406933D01*
X156770464Y-59293275D01*
X156770179Y-59287564D01*
X156769060Y-59242127D01*
X156771181Y-59198593D01*
X156777958Y-59154576D01*
X156790812Y-59107693D01*
X156811160Y-59055558D01*
X156840420Y-58995786D01*
X156880012Y-58925994D01*
X156931353Y-58843797D01*
X156995862Y-58746809D01*
X157074957Y-58632647D01*
X157170057Y-58498925D01*
X157282581Y-58343260D01*
X157413946Y-58163265D01*
X157565572Y-57956557D01*
X158100786Y-57227911D01*
X158105501Y-58072755D01*
X158105919Y-58151562D01*
X158106656Y-58363832D01*
X158106321Y-58544381D01*
X158104519Y-58696628D01*
X158100856Y-58823988D01*
X158094936Y-58929878D01*
X158086367Y-59017715D01*
X158074751Y-59090916D01*
X158059697Y-59152898D01*
X158040807Y-59207076D01*
X158017689Y-59256869D01*
X157989947Y-59305693D01*
X157957187Y-59356964D01*
X157924256Y-59406857D01*
X159635704Y-59406857D01*
X159591496Y-59347893D01*
X159584572Y-59338565D01*
X159529221Y-59253070D01*
X159491064Y-59166644D01*
X159466008Y-59067613D01*
X159449959Y-58944304D01*
X159449518Y-58938929D01*
X159447189Y-58888067D01*
X159445087Y-58803206D01*
X159443219Y-58686286D01*
X159441596Y-58539246D01*
X159440227Y-58364026D01*
X159439120Y-58162563D01*
X159438285Y-57936798D01*
X159437732Y-57688669D01*
X159437468Y-57420115D01*
X159437503Y-57133077D01*
X159437847Y-56829492D01*
X159438508Y-56511300D01*
X159439209Y-56225881D01*
X159439958Y-55915196D01*
X159440696Y-55637226D01*
X159441515Y-55390022D01*
X159442507Y-55171637D01*
X159443766Y-54980125D01*
X159445383Y-54813537D01*
X159447452Y-54669925D01*
X159450065Y-54547344D01*
X159453315Y-54443844D01*
X159457293Y-54357479D01*
X159462094Y-54286301D01*
X159467809Y-54228363D01*
X159474532Y-54181717D01*
X159482354Y-54144416D01*
X159491368Y-54114512D01*
X159501667Y-54090058D01*
X159513344Y-54069106D01*
X159526492Y-54049709D01*
X159541202Y-54029920D01*
X159557567Y-54007791D01*
X159573396Y-53985615D01*
X159603991Y-53941769D01*
X159622317Y-53914107D01*
X159622759Y-53912949D01*
X159616360Y-53907718D01*
X159593779Y-53903353D01*
X159552502Y-53899788D01*
X159490017Y-53896954D01*
X159403812Y-53894787D01*
X159291373Y-53893217D01*
X159150188Y-53892179D01*
X158977745Y-53891605D01*
X158771530Y-53891429D01*
X157907060Y-53891429D01*
X157952621Y-53945574D01*
X157979026Y-53982763D01*
X158022978Y-54070446D01*
X158061495Y-54179499D01*
X158090893Y-54300468D01*
X158092766Y-54311952D01*
X158098341Y-54372492D01*
X158102563Y-54466056D01*
X158105443Y-54593292D01*
X158106992Y-54754846D01*
X158107221Y-54951368D01*
X158106143Y-55183504D01*
X158100786Y-55958508D01*
X157547429Y-55258742D01*
X157531579Y-55238698D01*
X157391253Y-55061052D01*
X157271453Y-54908914D01*
X157170270Y-54779698D01*
X157085800Y-54670817D01*
X157016135Y-54579685D01*
X156959368Y-54503714D01*
X156913594Y-54440317D01*
X156876906Y-54386908D01*
X156847396Y-54340901D01*
X156823159Y-54299707D01*
X156802288Y-54260741D01*
X156782877Y-54221415D01*
X156753015Y-54151805D01*
X156733724Y-54078372D01*
X156728592Y-53999165D01*
X156729108Y-53891429D01*
X154893127Y-53891429D01*
X154286080Y-53891429D01*
X154305830Y-53881138D01*
X154448136Y-53769032D01*
X154487695Y-53729510D01*
X154604620Y-53583175D01*
X154687588Y-53424367D01*
X154737043Y-53252063D01*
X154753429Y-53065238D01*
X154753429Y-52911715D01*
X157357830Y-52911714D01*
X157520540Y-52911707D01*
X157870089Y-52911660D01*
X158185856Y-52911626D01*
X158469588Y-52911673D01*
X158723031Y-52911872D01*
X158947931Y-52912291D01*
X159146034Y-52912998D01*
X159319087Y-52914065D01*
X159468835Y-52915558D01*
X159597025Y-52917547D01*
X159705403Y-52920102D01*
X159795715Y-52923291D01*
X159869707Y-52927183D01*
X159929125Y-52931848D01*
X159975716Y-52937354D01*
X160011226Y-52943771D01*
X160037400Y-52951167D01*
X160055986Y-52959611D01*
X160068728Y-52969173D01*
X160077374Y-52979922D01*
X160083670Y-52991926D01*
X160089360Y-53005255D01*
X160096193Y-53019978D01*
X160096316Y-53020218D01*
X160099633Y-53029856D01*
X160102676Y-53045993D01*
X160105456Y-53070121D01*
X160107985Y-53103727D01*
X160110274Y-53148301D01*
X160112334Y-53205333D01*
X160114179Y-53276311D01*
X160115817Y-53362725D01*
X160117263Y-53466064D01*
X160118526Y-53587818D01*
X160119619Y-53729475D01*
X160120553Y-53892526D01*
X160121340Y-54078458D01*
X160121991Y-54288762D01*
X160122517Y-54524927D01*
X160122931Y-54788442D01*
X160123244Y-55080797D01*
X160123467Y-55403480D01*
X160123612Y-55757981D01*
X160123691Y-56145789D01*
X160123714Y-56568393D01*
X160123715Y-56651414D01*
X160123755Y-57069614D01*
X160123817Y-57453313D01*
X160123854Y-57804009D01*
X160123817Y-58123204D01*
X160123662Y-58412398D01*
X160123339Y-58673091D01*
X160122801Y-58906784D01*
X160122001Y-59114976D01*
X160120892Y-59299168D01*
X160119916Y-59406857D01*
X160119428Y-59460860D01*
G37*
%TD*%
M02*
